<svg width="1033" height="551" viewBox="0 0 1033 551" fill="none" xmlns="http://www.w3.org/2000/svg">
<circle cx="275" cy="275" r="275" transform="matrix(-1 0.000771708 -0.000684879 -1 791.612 550.396)" fill="url(#paint0_linear_2_6)"/>
<circle cx="100" cy="100" r="100" transform="matrix(-1 0.000771708 -0.000684879 -1 616.834 375.523)" fill="#FFA800"/>
<path d="M511.201 275.726C511.199 272.57 513.691 270.03 516.741 270.028C519.792 270.026 522.287 272.561 522.289 275.717C522.291 278.873 519.799 281.413 516.749 281.415C513.699 281.418 511.203 278.882 511.201 275.726Z" fill="#8B8B8B" stroke="black"/>
<mask id="path-4-outside-1_2_6" maskUnits="userSpaceOnUse" x="18" y="220" width="1004" height="115" fill="black">
<rect fill="white" x="18" y="220" width="1004" height="115"/>
<path d="M26.9041 226.85C28.1041 226.85 29.3541 227.15 30.6541 227.75C31.9541 228.35 32.9541 229.2 33.6541 230.3L71.7541 288.35L65.3041 288.05L104.154 230.3C105.754 228 107.804 226.85 110.304 226.85C112.304 226.85 114.054 227.6 115.554 229.1C117.154 230.5 117.954 232.3 117.954 234.5V324.35C117.954 326.55 117.254 328.4 115.854 329.9C114.454 331.3 112.604 332 110.304 332C107.904 332 105.954 331.3 104.454 329.9C103.054 328.4 102.354 326.55 102.354 324.35V248.3L107.154 249.35L74.1541 299.6C73.4541 300.5 72.5541 301.3 71.4541 302C70.3541 302.6 69.2041 302.85 68.0041 302.75C66.9041 302.85 65.7541 302.6 64.5541 302C63.4541 301.3 62.5541 300.5 61.8541 299.6L30.0541 250.1L33.6541 244.1V324.35C33.6541 326.55 32.9541 328.4 31.5541 329.9C30.2541 331.3 28.5041 332 26.3041 332C24.2041 332 22.4541 331.3 21.0541 329.9C19.7541 328.4 19.1041 326.55 19.1041 324.35V234.5C19.1041 232.4 19.8541 230.6 21.3541 229.1C22.9541 227.6 24.8041 226.85 26.9041 226.85ZM199.594 253.1C201.694 253.1 203.444 253.85 204.844 255.35C206.344 256.75 207.094 258.55 207.094 260.75V300.2C207.094 310.6 204.194 318.75 198.394 324.65C192.594 330.45 184.394 333.35 173.794 333.35C163.294 333.35 155.144 330.45 149.344 324.65C143.644 318.75 140.794 310.6 140.794 300.2V260.75C140.794 258.55 141.494 256.75 142.894 255.35C144.294 253.85 146.094 253.1 148.294 253.1C150.394 253.1 152.144 253.85 153.544 255.35C155.044 256.75 155.794 258.55 155.794 260.75V300.2C155.794 306.7 157.294 311.55 160.294 314.75C163.394 317.95 167.894 319.55 173.794 319.55C179.794 319.55 184.344 317.95 187.444 314.75C190.544 311.55 192.094 306.7 192.094 300.2V260.75C192.094 258.55 192.794 256.75 194.194 255.35C195.594 253.85 197.394 253.1 199.594 253.1ZM223.302 319.7C222.402 318.3 222.002 316.7 222.102 314.9C222.202 313 223.252 311.4 225.252 310.1C226.652 309.2 228.102 308.85 229.602 309.05C231.202 309.15 232.702 309.9 234.102 311.3C236.902 314.4 240.002 316.85 243.402 318.65C246.902 320.45 251.102 321.35 256.002 321.35C258.002 321.25 260.052 320.95 262.152 320.45C264.252 319.85 266.052 318.85 267.552 317.45C269.052 315.95 269.802 313.8 269.802 311C269.802 308.5 269.002 306.5 267.402 305C265.802 303.5 263.702 302.3 261.102 301.4C258.502 300.4 255.702 299.5 252.702 298.7C249.502 297.8 246.252 296.8 242.952 295.7C239.752 294.6 236.852 293.2 234.252 291.5C231.652 289.7 229.502 287.4 227.802 284.6C226.202 281.8 225.402 278.35 225.402 274.25C225.402 269.55 226.702 265.5 229.302 262.1C232.002 258.7 235.452 256.05 239.652 254.15C243.952 252.25 248.602 251.3 253.602 251.3C256.502 251.3 259.552 251.7 262.752 252.5C265.952 253.2 269.052 254.35 272.052 255.95C275.052 257.55 277.652 259.65 279.852 262.25C280.852 263.55 281.402 265.1 281.502 266.9C281.702 268.7 280.902 270.3 279.102 271.7C277.902 272.7 276.452 273.15 274.752 273.05C273.052 272.95 271.652 272.4 270.552 271.4C268.652 269 266.202 267.15 263.202 265.85C260.202 264.45 256.802 263.75 253.002 263.75C251.102 263.75 249.102 264.05 247.002 264.65C245.002 265.15 243.302 266.1 241.902 267.5C240.502 268.9 239.802 270.95 239.802 273.65C239.802 276.15 240.602 278.15 242.202 279.65C243.902 281.15 246.102 282.4 248.802 283.4C251.502 284.4 254.452 285.3 257.652 286.1C260.752 286.9 263.802 287.85 266.802 288.95C269.902 290.05 272.652 291.5 275.052 293.3C277.552 295 279.552 297.25 281.052 300.05C282.652 302.75 283.452 306.2 283.452 310.4C283.452 315.3 282.002 319.5 279.102 323C276.302 326.4 272.702 329 268.302 330.8C264.002 332.6 259.452 333.5 254.652 333.5C248.952 333.5 243.252 332.5 237.552 330.5C231.952 328.4 227.202 324.8 223.302 319.7ZM313.683 324.35C313.683 326.55 312.983 328.4 311.583 329.9C310.183 331.3 308.383 332 306.183 332C304.083 332 302.283 331.3 300.783 329.9C299.383 328.4 298.683 326.55 298.683 324.35V260.15C298.683 257.95 299.383 256.15 300.783 254.75C302.283 253.25 304.083 252.5 306.183 252.5C308.383 252.5 310.183 253.25 311.583 254.75C312.983 256.15 313.683 257.95 313.683 260.15V324.35ZM306.033 242.6C303.133 242.6 301.033 242.1 299.733 241.1C298.433 240 297.783 238.2 297.783 235.7V233.3C297.783 230.8 298.483 229.05 299.883 228.05C301.283 227.05 303.383 226.55 306.183 226.55C309.183 226.55 311.333 227.1 312.633 228.2C313.933 229.2 314.583 230.9 314.583 233.3V235.7C314.583 238.3 313.883 240.1 312.483 241.1C311.183 242.1 309.033 242.6 306.033 242.6ZM368.81 251.3C374.21 251.3 379.01 251.9 383.21 253.1C387.41 254.2 390.66 255.8 392.96 257.9C395.36 259.9 396.56 262.25 396.56 264.95C396.56 266.65 396.06 268.25 395.06 269.75C394.06 271.15 392.56 271.85 390.56 271.85C389.16 271.85 387.96 271.6 386.96 271.1C386.06 270.6 385.21 270 384.41 269.3C383.61 268.6 382.61 267.9 381.41 267.2C380.31 266.6 378.66 266.1 376.46 265.7C374.36 265.3 372.46 265.1 370.76 265.1C365.46 265.1 360.86 266.3 356.96 268.7C353.16 271.1 350.16 274.35 347.96 278.45C345.86 282.55 344.81 287.2 344.81 292.4C344.81 297.6 345.86 302.25 347.96 306.35C350.16 310.45 353.11 313.7 356.81 316.1C360.61 318.5 365.01 319.7 370.01 319.7C373.01 319.7 375.46 319.5 377.36 319.1C379.26 318.6 380.91 318 382.31 317.3C383.81 316.4 385.06 315.5 386.06 314.6C387.16 313.6 388.66 313.1 390.56 313.1C392.76 313.1 394.41 313.8 395.51 315.2C396.71 316.5 397.31 318.15 397.31 320.15C397.31 322.35 395.96 324.5 393.26 326.6C390.66 328.6 387.16 330.25 382.76 331.55C378.36 332.85 373.51 333.5 368.21 333.5C360.41 333.5 353.61 331.7 347.81 328.1C342.11 324.5 337.66 319.6 334.46 313.4C331.36 307.2 329.81 300.2 329.81 292.4C329.81 284.5 331.46 277.5 334.76 271.4C338.06 265.2 342.66 260.3 348.56 256.7C354.46 253.1 361.21 251.3 368.81 251.3ZM464.042 332C461.642 332 459.542 331.3 457.742 329.9C455.942 328.4 455.042 326.55 455.042 324.35V234.65C455.042 232.45 455.792 230.65 457.292 229.25C458.792 227.75 460.592 227 462.692 227H504.992C510.392 227 515.342 228.35 519.842 231.05C524.342 233.65 527.942 237.3 530.642 242C533.442 246.6 534.842 251.9 534.842 257.9C534.842 261.9 534.042 265.75 532.442 269.45C530.842 273.05 528.692 276.25 525.992 279.05C523.292 281.85 520.242 283.95 516.842 285.35L515.192 282.5C518.292 283.6 520.992 285.2 523.292 287.3C525.592 289.3 527.392 291.7 528.692 294.5C530.092 297.2 530.842 300.3 530.942 303.8C531.242 306.9 531.492 309.5 531.692 311.6C531.992 313.6 532.392 315.25 532.892 316.55C533.392 317.85 534.292 318.85 535.592 319.55C537.392 320.55 538.492 322.05 538.892 324.05C539.392 326.05 538.992 327.85 537.692 329.45C536.792 330.65 535.642 331.45 534.242 331.85C532.942 332.15 531.592 332.2 530.192 332C528.792 331.7 527.592 331.3 526.592 330.8C524.992 329.8 523.342 328.4 521.642 326.6C520.042 324.7 518.742 322.1 517.742 318.8C516.742 315.5 516.242 311.15 516.242 305.75C516.242 303.25 515.842 301.1 515.042 299.3C514.242 297.5 513.142 296.05 511.742 294.95C510.342 293.75 508.692 292.9 506.792 292.4C504.892 291.8 502.792 291.5 500.492 291.5H468.692L470.792 288.5V324.35C470.792 326.55 470.192 328.4 468.992 329.9C467.792 331.3 466.142 332 464.042 332ZM468.842 278.45H504.692C506.992 278.35 509.192 277.45 511.292 275.75C513.492 273.95 515.242 271.55 516.542 268.55C517.942 265.55 518.642 262.15 518.642 258.35C518.642 253.55 517.192 249.55 514.292 246.35C511.492 243.05 508.142 241.4 504.242 241.4H469.142L470.792 237.5V281.6L468.842 278.45ZM591.509 333.5C583.209 333.5 576.009 331.8 569.909 328.4C563.809 324.9 559.059 320.15 555.659 314.15C552.359 308.05 550.709 301.1 550.709 293.3C550.709 284.5 552.459 277 555.959 270.8C559.559 264.5 564.209 259.7 569.909 256.4C575.609 253 581.659 251.3 588.059 251.3C592.959 251.3 597.609 252.3 602.009 254.3C606.409 256.2 610.309 258.9 613.709 262.4C617.209 265.8 619.959 269.85 621.959 274.55C623.959 279.15 625.009 284.2 625.109 289.7C625.009 291.7 624.209 293.35 622.709 294.65C621.209 295.95 619.459 296.6 617.459 296.6H559.109L555.509 283.85H611.909L609.059 286.55V282.8C608.859 279.3 607.709 276.25 605.609 273.65C603.509 270.95 600.909 268.9 597.809 267.5C594.709 266 591.459 265.25 588.059 265.25C585.059 265.25 582.159 265.75 579.359 266.75C576.659 267.65 574.209 269.15 572.009 271.25C569.909 273.35 568.209 276.15 566.909 279.65C565.709 283.05 565.109 287.3 565.109 292.4C565.109 297.9 566.259 302.7 568.559 306.8C570.859 310.9 573.959 314.1 577.859 316.4C581.759 318.6 586.059 319.7 590.759 319.7C594.459 319.7 597.509 319.35 599.909 318.65C602.309 317.85 604.309 316.9 605.909 315.8C607.509 314.7 608.909 313.65 610.109 312.65C611.609 311.75 613.109 311.3 614.609 311.3C616.409 311.3 617.909 311.95 619.109 313.25C620.309 314.45 620.909 315.9 620.909 317.6C620.909 319.8 619.809 321.8 617.609 323.6C614.909 326.2 611.159 328.5 606.359 330.5C601.659 332.5 596.709 333.5 591.509 333.5ZM677.013 251.3C682.413 251.3 687.213 251.9 691.413 253.1C695.613 254.2 698.863 255.8 701.163 257.9C703.563 259.9 704.763 262.25 704.763 264.95C704.763 266.65 704.263 268.25 703.263 269.75C702.263 271.15 700.763 271.85 698.763 271.85C697.363 271.85 696.163 271.6 695.163 271.1C694.263 270.6 693.413 270 692.613 269.3C691.813 268.6 690.813 267.9 689.613 267.2C688.513 266.6 686.863 266.1 684.663 265.7C682.563 265.3 680.663 265.1 678.963 265.1C673.663 265.1 669.063 266.3 665.163 268.7C661.363 271.1 658.363 274.35 656.163 278.45C654.063 282.55 653.013 287.2 653.013 292.4C653.013 297.6 654.063 302.25 656.163 306.35C658.363 310.45 661.313 313.7 665.013 316.1C668.813 318.5 673.213 319.7 678.213 319.7C681.213 319.7 683.663 319.5 685.563 319.1C687.463 318.6 689.113 318 690.513 317.3C692.013 316.4 693.263 315.5 694.263 314.6C695.363 313.6 696.863 313.1 698.763 313.1C700.963 313.1 702.613 313.8 703.713 315.2C704.913 316.5 705.513 318.15 705.513 320.15C705.513 322.35 704.163 324.5 701.463 326.6C698.863 328.6 695.363 330.25 690.963 331.55C686.563 332.85 681.713 333.5 676.413 333.5C668.613 333.5 661.813 331.7 656.013 328.1C650.313 324.5 645.863 319.6 642.663 313.4C639.563 307.2 638.013 300.2 638.013 292.4C638.013 284.5 639.663 277.5 642.963 271.4C646.263 265.2 650.863 260.3 656.763 256.7C662.663 253.1 669.413 251.3 677.013 251.3ZM795.447 292.55C795.447 300.55 793.697 307.65 790.197 313.85C786.697 319.95 781.947 324.75 775.947 328.25C769.947 331.75 763.197 333.5 755.697 333.5C748.197 333.5 741.447 331.75 735.447 328.25C729.447 324.75 724.647 319.95 721.047 313.85C717.547 307.65 715.797 300.55 715.797 292.55C715.797 284.45 717.547 277.35 721.047 271.25C724.647 265.05 729.447 260.2 735.447 256.7C741.447 253.1 748.197 251.3 755.697 251.3C763.197 251.3 769.947 253.1 775.947 256.7C781.947 260.2 786.697 265.05 790.197 271.25C793.697 277.35 795.447 284.45 795.447 292.55ZM780.447 292.55C780.447 287.05 779.347 282.3 777.147 278.3C774.947 274.2 771.947 271 768.147 268.7C764.447 266.3 760.297 265.1 755.697 265.1C751.097 265.1 746.897 266.3 743.097 268.7C739.297 271 736.297 274.2 734.097 278.3C731.897 282.3 730.797 287.05 730.797 292.55C730.797 297.85 731.897 302.55 734.097 306.65C736.297 310.75 739.297 313.95 743.097 316.25C746.897 318.55 751.097 319.7 755.697 319.7C760.297 319.7 764.447 318.55 768.147 316.25C771.947 313.95 774.947 310.75 777.147 306.65C779.347 302.55 780.447 297.85 780.447 292.55ZM819.925 332C817.725 332 815.925 331.3 814.525 329.9C813.125 328.4 812.425 326.55 812.425 324.35V260.75C812.425 258.55 813.125 256.75 814.525 255.35C815.925 253.85 817.725 253.1 819.925 253.1C822.025 253.1 823.775 253.85 825.175 255.35C826.675 256.75 827.425 258.55 827.425 260.75V277.55L825.925 271.1C826.725 268.3 827.925 265.7 829.525 263.3C831.225 260.9 833.225 258.8 835.525 257C837.825 255.2 840.375 253.8 843.175 252.8C846.075 251.8 849.075 251.3 852.175 251.3C854.775 251.3 857.025 252 858.925 253.4C860.825 254.8 861.775 256.55 861.775 258.65C861.775 261.35 861.075 263.35 859.675 264.65C858.275 265.85 856.725 266.45 855.025 266.45C853.525 266.45 852.075 266.15 850.675 265.55C849.275 264.85 847.625 264.5 845.725 264.5C843.625 264.5 841.475 265.05 839.275 266.15C837.075 267.25 835.075 268.9 833.275 271.1C831.475 273.2 830.025 275.7 828.925 278.6C827.925 281.5 827.425 284.75 827.425 288.35V324.35C827.425 326.55 826.675 328.4 825.175 329.9C823.775 331.3 822.025 332 819.925 332ZM936.401 221C938.601 221 940.401 221.7 941.801 223.1C943.201 224.5 943.901 226.35 943.901 228.65V324.35C943.901 326.55 943.201 328.4 941.801 329.9C940.401 331.3 938.601 332 936.401 332C934.301 332 932.501 331.3 931.001 329.9C929.601 328.4 928.901 326.55 928.901 324.35V313.55L932.051 313.7C932.051 315.5 931.301 317.55 929.801 319.85C928.401 322.05 926.451 324.2 923.951 326.3C921.451 328.4 918.501 330.15 915.101 331.55C911.701 332.85 908.051 333.5 904.151 333.5C897.251 333.5 891.051 331.75 885.551 328.25C880.051 324.65 875.701 319.8 872.501 313.7C869.301 307.5 867.701 300.4 867.701 292.4C867.701 284.4 869.301 277.35 872.501 271.25C875.701 265.05 880.001 260.2 885.401 256.7C890.901 253.1 897.001 251.3 903.701 251.3C907.901 251.3 911.801 252 915.401 253.4C919.101 254.8 922.301 256.6 925.001 258.8C927.701 261 929.801 263.35 931.301 265.85C932.801 268.25 933.551 270.55 933.551 272.75L928.901 273.2V228.65C928.901 226.45 929.601 224.65 931.001 223.25C932.501 221.75 934.301 221 936.401 221ZM905.801 319.7C910.601 319.7 914.751 318.5 918.251 316.1C921.851 313.7 924.651 310.45 926.651 306.35C928.651 302.25 929.651 297.6 929.651 292.4C929.651 287.2 928.651 282.55 926.651 278.45C924.651 274.35 921.851 271.1 918.251 268.7C914.651 266.3 910.501 265.1 905.801 265.1C901.201 265.1 897.101 266.3 893.501 268.7C890.001 271.1 887.201 274.35 885.101 278.45C883.101 282.55 882.101 287.2 882.101 292.4C882.101 297.6 883.101 302.25 885.101 306.35C887.201 310.45 890.001 313.7 893.501 316.1C897.101 318.5 901.201 319.7 905.801 319.7ZM960.265 319.7C959.365 318.3 958.965 316.7 959.065 314.9C959.165 313 960.215 311.4 962.215 310.1C963.615 309.2 965.065 308.85 966.565 309.05C968.165 309.15 969.665 309.9 971.065 311.3C973.865 314.4 976.965 316.85 980.365 318.65C983.865 320.45 988.065 321.35 992.965 321.35C994.965 321.25 997.015 320.95 999.115 320.45C1001.22 319.85 1003.02 318.85 1004.52 317.45C1006.02 315.95 1006.77 313.8 1006.77 311C1006.77 308.5 1005.97 306.5 1004.37 305C1002.77 303.5 1000.67 302.3 998.065 301.4C995.465 300.4 992.665 299.5 989.665 298.7C986.465 297.8 983.215 296.8 979.915 295.7C976.715 294.6 973.815 293.2 971.215 291.5C968.615 289.7 966.465 287.4 964.765 284.6C963.165 281.8 962.365 278.35 962.365 274.25C962.365 269.55 963.665 265.5 966.265 262.1C968.965 258.7 972.415 256.05 976.615 254.15C980.915 252.25 985.565 251.3 990.565 251.3C993.465 251.3 996.515 251.7 999.715 252.5C1002.92 253.2 1006.02 254.35 1009.02 255.95C1012.02 257.55 1014.62 259.65 1016.82 262.25C1017.82 263.55 1018.37 265.1 1018.47 266.9C1018.67 268.7 1017.87 270.3 1016.07 271.7C1014.87 272.7 1013.42 273.15 1011.72 273.05C1010.02 272.95 1008.62 272.4 1007.52 271.4C1005.62 269 1003.17 267.15 1000.17 265.85C997.165 264.45 993.765 263.75 989.965 263.75C988.065 263.75 986.065 264.05 983.965 264.65C981.965 265.15 980.265 266.1 978.865 267.5C977.465 268.9 976.765 270.95 976.765 273.65C976.765 276.15 977.565 278.15 979.165 279.65C980.865 281.15 983.065 282.4 985.765 283.4C988.465 284.4 991.415 285.3 994.615 286.1C997.715 286.9 1000.77 287.85 1003.77 288.95C1006.87 290.05 1009.62 291.5 1012.02 293.3C1014.52 295 1016.52 297.25 1018.02 300.05C1019.62 302.75 1020.42 306.2 1020.42 310.4C1020.42 315.3 1018.97 319.5 1016.07 323C1013.27 326.4 1009.67 329 1005.27 330.8C1000.97 332.6 996.415 333.5 991.615 333.5C985.915 333.5 980.215 332.5 974.515 330.5C968.915 328.4 964.165 324.8 960.265 319.7Z"/>
</mask>
<path d="M26.9041 226.85C28.1041 226.85 29.3541 227.15 30.6541 227.75C31.9541 228.35 32.9541 229.2 33.6541 230.3L71.7541 288.35L65.3041 288.05L104.154 230.3C105.754 228 107.804 226.85 110.304 226.85C112.304 226.85 114.054 227.6 115.554 229.1C117.154 230.5 117.954 232.3 117.954 234.5V324.35C117.954 326.55 117.254 328.4 115.854 329.9C114.454 331.3 112.604 332 110.304 332C107.904 332 105.954 331.3 104.454 329.9C103.054 328.4 102.354 326.55 102.354 324.35V248.3L107.154 249.35L74.1541 299.6C73.4541 300.5 72.5541 301.3 71.4541 302C70.3541 302.6 69.2041 302.85 68.0041 302.75C66.9041 302.85 65.7541 302.6 64.5541 302C63.4541 301.3 62.5541 300.5 61.8541 299.6L30.0541 250.1L33.6541 244.1V324.35C33.6541 326.55 32.9541 328.4 31.5541 329.9C30.2541 331.3 28.5041 332 26.3041 332C24.2041 332 22.4541 331.3 21.0541 329.9C19.7541 328.4 19.1041 326.55 19.1041 324.35V234.5C19.1041 232.4 19.8541 230.6 21.3541 229.1C22.9541 227.6 24.8041 226.85 26.9041 226.85ZM199.594 253.1C201.694 253.1 203.444 253.85 204.844 255.35C206.344 256.75 207.094 258.55 207.094 260.75V300.2C207.094 310.6 204.194 318.75 198.394 324.65C192.594 330.45 184.394 333.35 173.794 333.35C163.294 333.35 155.144 330.45 149.344 324.65C143.644 318.75 140.794 310.6 140.794 300.2V260.75C140.794 258.55 141.494 256.75 142.894 255.35C144.294 253.85 146.094 253.1 148.294 253.1C150.394 253.1 152.144 253.85 153.544 255.35C155.044 256.75 155.794 258.55 155.794 260.75V300.2C155.794 306.7 157.294 311.55 160.294 314.75C163.394 317.95 167.894 319.55 173.794 319.55C179.794 319.55 184.344 317.95 187.444 314.75C190.544 311.55 192.094 306.7 192.094 300.2V260.75C192.094 258.55 192.794 256.75 194.194 255.35C195.594 253.85 197.394 253.1 199.594 253.1ZM223.302 319.7C222.402 318.3 222.002 316.7 222.102 314.9C222.202 313 223.252 311.4 225.252 310.1C226.652 309.2 228.102 308.85 229.602 309.05C231.202 309.15 232.702 309.9 234.102 311.3C236.902 314.4 240.002 316.85 243.402 318.65C246.902 320.45 251.102 321.35 256.002 321.35C258.002 321.25 260.052 320.95 262.152 320.45C264.252 319.85 266.052 318.85 267.552 317.45C269.052 315.95 269.802 313.8 269.802 311C269.802 308.5 269.002 306.5 267.402 305C265.802 303.5 263.702 302.3 261.102 301.4C258.502 300.4 255.702 299.5 252.702 298.7C249.502 297.8 246.252 296.8 242.952 295.7C239.752 294.6 236.852 293.2 234.252 291.5C231.652 289.7 229.502 287.4 227.802 284.6C226.202 281.8 225.402 278.35 225.402 274.25C225.402 269.55 226.702 265.5 229.302 262.1C232.002 258.7 235.452 256.05 239.652 254.15C243.952 252.25 248.602 251.3 253.602 251.3C256.502 251.3 259.552 251.7 262.752 252.5C265.952 253.2 269.052 254.35 272.052 255.95C275.052 257.55 277.652 259.65 279.852 262.25C280.852 263.55 281.402 265.1 281.502 266.9C281.702 268.7 280.902 270.3 279.102 271.7C277.902 272.7 276.452 273.15 274.752 273.05C273.052 272.95 271.652 272.4 270.552 271.4C268.652 269 266.202 267.15 263.202 265.85C260.202 264.45 256.802 263.75 253.002 263.75C251.102 263.75 249.102 264.05 247.002 264.65C245.002 265.15 243.302 266.1 241.902 267.5C240.502 268.9 239.802 270.95 239.802 273.65C239.802 276.15 240.602 278.15 242.202 279.65C243.902 281.15 246.102 282.4 248.802 283.4C251.502 284.4 254.452 285.3 257.652 286.1C260.752 286.9 263.802 287.85 266.802 288.95C269.902 290.05 272.652 291.5 275.052 293.3C277.552 295 279.552 297.25 281.052 300.05C282.652 302.75 283.452 306.2 283.452 310.4C283.452 315.3 282.002 319.5 279.102 323C276.302 326.4 272.702 329 268.302 330.8C264.002 332.6 259.452 333.5 254.652 333.5C248.952 333.5 243.252 332.5 237.552 330.5C231.952 328.4 227.202 324.8 223.302 319.7ZM313.683 324.35C313.683 326.55 312.983 328.4 311.583 329.9C310.183 331.3 308.383 332 306.183 332C304.083 332 302.283 331.3 300.783 329.9C299.383 328.4 298.683 326.55 298.683 324.35V260.15C298.683 257.95 299.383 256.15 300.783 254.75C302.283 253.25 304.083 252.5 306.183 252.5C308.383 252.5 310.183 253.25 311.583 254.75C312.983 256.15 313.683 257.95 313.683 260.15V324.35ZM306.033 242.6C303.133 242.6 301.033 242.1 299.733 241.1C298.433 240 297.783 238.2 297.783 235.7V233.3C297.783 230.8 298.483 229.05 299.883 228.05C301.283 227.05 303.383 226.55 306.183 226.55C309.183 226.55 311.333 227.1 312.633 228.2C313.933 229.2 314.583 230.9 314.583 233.3V235.7C314.583 238.3 313.883 240.1 312.483 241.1C311.183 242.1 309.033 242.6 306.033 242.6ZM368.81 251.3C374.21 251.3 379.01 251.9 383.21 253.1C387.41 254.2 390.66 255.8 392.96 257.9C395.36 259.9 396.56 262.25 396.56 264.95C396.56 266.65 396.06 268.25 395.06 269.75C394.06 271.15 392.56 271.85 390.56 271.85C389.16 271.85 387.96 271.6 386.96 271.1C386.06 270.6 385.21 270 384.41 269.3C383.61 268.6 382.61 267.9 381.41 267.2C380.31 266.6 378.66 266.1 376.46 265.7C374.36 265.3 372.46 265.1 370.76 265.1C365.46 265.1 360.86 266.3 356.96 268.7C353.16 271.1 350.16 274.35 347.96 278.45C345.86 282.55 344.81 287.2 344.81 292.4C344.81 297.6 345.86 302.25 347.96 306.35C350.16 310.45 353.11 313.7 356.81 316.1C360.61 318.5 365.01 319.7 370.01 319.7C373.01 319.7 375.46 319.5 377.36 319.1C379.26 318.6 380.91 318 382.31 317.3C383.81 316.4 385.06 315.5 386.06 314.6C387.16 313.6 388.66 313.1 390.56 313.1C392.76 313.1 394.41 313.8 395.51 315.2C396.71 316.5 397.31 318.15 397.31 320.15C397.31 322.35 395.96 324.5 393.26 326.6C390.66 328.6 387.16 330.25 382.76 331.55C378.36 332.85 373.51 333.5 368.21 333.5C360.41 333.5 353.61 331.7 347.81 328.1C342.11 324.5 337.66 319.6 334.46 313.4C331.36 307.2 329.81 300.2 329.81 292.4C329.81 284.5 331.46 277.5 334.76 271.4C338.06 265.2 342.66 260.3 348.56 256.7C354.46 253.1 361.21 251.3 368.81 251.3ZM464.042 332C461.642 332 459.542 331.3 457.742 329.9C455.942 328.4 455.042 326.55 455.042 324.35V234.65C455.042 232.45 455.792 230.65 457.292 229.25C458.792 227.75 460.592 227 462.692 227H504.992C510.392 227 515.342 228.35 519.842 231.05C524.342 233.65 527.942 237.3 530.642 242C533.442 246.6 534.842 251.9 534.842 257.9C534.842 261.9 534.042 265.75 532.442 269.45C530.842 273.05 528.692 276.25 525.992 279.05C523.292 281.85 520.242 283.95 516.842 285.35L515.192 282.5C518.292 283.6 520.992 285.2 523.292 287.3C525.592 289.3 527.392 291.7 528.692 294.5C530.092 297.2 530.842 300.3 530.942 303.8C531.242 306.9 531.492 309.5 531.692 311.6C531.992 313.6 532.392 315.25 532.892 316.55C533.392 317.85 534.292 318.85 535.592 319.55C537.392 320.55 538.492 322.05 538.892 324.05C539.392 326.05 538.992 327.85 537.692 329.45C536.792 330.65 535.642 331.45 534.242 331.85C532.942 332.15 531.592 332.2 530.192 332C528.792 331.7 527.592 331.3 526.592 330.8C524.992 329.8 523.342 328.4 521.642 326.6C520.042 324.7 518.742 322.1 517.742 318.8C516.742 315.5 516.242 311.15 516.242 305.75C516.242 303.25 515.842 301.1 515.042 299.3C514.242 297.5 513.142 296.05 511.742 294.95C510.342 293.75 508.692 292.9 506.792 292.4C504.892 291.8 502.792 291.5 500.492 291.5H468.692L470.792 288.5V324.35C470.792 326.55 470.192 328.4 468.992 329.9C467.792 331.3 466.142 332 464.042 332ZM468.842 278.45H504.692C506.992 278.35 509.192 277.45 511.292 275.75C513.492 273.95 515.242 271.55 516.542 268.55C517.942 265.55 518.642 262.15 518.642 258.35C518.642 253.55 517.192 249.55 514.292 246.35C511.492 243.05 508.142 241.4 504.242 241.4H469.142L470.792 237.5V281.6L468.842 278.45ZM591.509 333.5C583.209 333.5 576.009 331.8 569.909 328.4C563.809 324.9 559.059 320.15 555.659 314.15C552.359 308.05 550.709 301.1 550.709 293.3C550.709 284.5 552.459 277 555.959 270.8C559.559 264.5 564.209 259.7 569.909 256.4C575.609 253 581.659 251.3 588.059 251.3C592.959 251.3 597.609 252.3 602.009 254.3C606.409 256.2 610.309 258.9 613.709 262.4C617.209 265.8 619.959 269.85 621.959 274.55C623.959 279.15 625.009 284.2 625.109 289.7C625.009 291.7 624.209 293.35 622.709 294.65C621.209 295.95 619.459 296.6 617.459 296.6H559.109L555.509 283.85H611.909L609.059 286.55V282.8C608.859 279.3 607.709 276.25 605.609 273.65C603.509 270.95 600.909 268.9 597.809 267.5C594.709 266 591.459 265.25 588.059 265.25C585.059 265.25 582.159 265.75 579.359 266.75C576.659 267.65 574.209 269.15 572.009 271.25C569.909 273.35 568.209 276.15 566.909 279.65C565.709 283.05 565.109 287.3 565.109 292.4C565.109 297.9 566.259 302.7 568.559 306.8C570.859 310.9 573.959 314.1 577.859 316.4C581.759 318.6 586.059 319.7 590.759 319.7C594.459 319.7 597.509 319.35 599.909 318.65C602.309 317.85 604.309 316.9 605.909 315.8C607.509 314.7 608.909 313.65 610.109 312.65C611.609 311.75 613.109 311.3 614.609 311.3C616.409 311.3 617.909 311.95 619.109 313.25C620.309 314.45 620.909 315.9 620.909 317.6C620.909 319.8 619.809 321.8 617.609 323.6C614.909 326.2 611.159 328.5 606.359 330.5C601.659 332.5 596.709 333.5 591.509 333.5ZM677.013 251.3C682.413 251.3 687.213 251.9 691.413 253.1C695.613 254.2 698.863 255.8 701.163 257.9C703.563 259.9 704.763 262.25 704.763 264.95C704.763 266.65 704.263 268.25 703.263 269.75C702.263 271.15 700.763 271.85 698.763 271.85C697.363 271.85 696.163 271.6 695.163 271.1C694.263 270.6 693.413 270 692.613 269.3C691.813 268.6 690.813 267.9 689.613 267.2C688.513 266.6 686.863 266.1 684.663 265.7C682.563 265.3 680.663 265.1 678.963 265.1C673.663 265.1 669.063 266.3 665.163 268.7C661.363 271.1 658.363 274.35 656.163 278.45C654.063 282.55 653.013 287.2 653.013 292.4C653.013 297.6 654.063 302.25 656.163 306.35C658.363 310.45 661.313 313.7 665.013 316.1C668.813 318.5 673.213 319.7 678.213 319.7C681.213 319.7 683.663 319.5 685.563 319.1C687.463 318.6 689.113 318 690.513 317.3C692.013 316.4 693.263 315.5 694.263 314.6C695.363 313.6 696.863 313.1 698.763 313.1C700.963 313.1 702.613 313.8 703.713 315.2C704.913 316.5 705.513 318.15 705.513 320.15C705.513 322.35 704.163 324.5 701.463 326.6C698.863 328.6 695.363 330.25 690.963 331.55C686.563 332.85 681.713 333.5 676.413 333.5C668.613 333.5 661.813 331.7 656.013 328.1C650.313 324.5 645.863 319.6 642.663 313.4C639.563 307.2 638.013 300.2 638.013 292.4C638.013 284.5 639.663 277.5 642.963 271.4C646.263 265.2 650.863 260.3 656.763 256.7C662.663 253.1 669.413 251.3 677.013 251.3ZM795.447 292.55C795.447 300.55 793.697 307.65 790.197 313.85C786.697 319.95 781.947 324.75 775.947 328.25C769.947 331.75 763.197 333.5 755.697 333.5C748.197 333.5 741.447 331.75 735.447 328.25C729.447 324.75 724.647 319.95 721.047 313.85C717.547 307.65 715.797 300.55 715.797 292.55C715.797 284.45 717.547 277.35 721.047 271.25C724.647 265.05 729.447 260.2 735.447 256.7C741.447 253.1 748.197 251.3 755.697 251.3C763.197 251.3 769.947 253.1 775.947 256.7C781.947 260.2 786.697 265.05 790.197 271.25C793.697 277.35 795.447 284.45 795.447 292.55ZM780.447 292.55C780.447 287.05 779.347 282.3 777.147 278.3C774.947 274.2 771.947 271 768.147 268.7C764.447 266.3 760.297 265.1 755.697 265.1C751.097 265.1 746.897 266.3 743.097 268.7C739.297 271 736.297 274.2 734.097 278.3C731.897 282.3 730.797 287.05 730.797 292.55C730.797 297.85 731.897 302.55 734.097 306.65C736.297 310.75 739.297 313.95 743.097 316.25C746.897 318.55 751.097 319.7 755.697 319.7C760.297 319.7 764.447 318.55 768.147 316.25C771.947 313.95 774.947 310.75 777.147 306.65C779.347 302.55 780.447 297.85 780.447 292.55ZM819.925 332C817.725 332 815.925 331.3 814.525 329.9C813.125 328.4 812.425 326.55 812.425 324.35V260.75C812.425 258.55 813.125 256.75 814.525 255.35C815.925 253.85 817.725 253.1 819.925 253.1C822.025 253.1 823.775 253.85 825.175 255.35C826.675 256.75 827.425 258.55 827.425 260.75V277.55L825.925 271.1C826.725 268.3 827.925 265.7 829.525 263.3C831.225 260.9 833.225 258.8 835.525 257C837.825 255.2 840.375 253.8 843.175 252.8C846.075 251.8 849.075 251.3 852.175 251.3C854.775 251.3 857.025 252 858.925 253.4C860.825 254.8 861.775 256.55 861.775 258.65C861.775 261.35 861.075 263.35 859.675 264.65C858.275 265.85 856.725 266.45 855.025 266.45C853.525 266.45 852.075 266.15 850.675 265.55C849.275 264.85 847.625 264.5 845.725 264.5C843.625 264.5 841.475 265.05 839.275 266.15C837.075 267.25 835.075 268.9 833.275 271.1C831.475 273.2 830.025 275.7 828.925 278.6C827.925 281.5 827.425 284.75 827.425 288.35V324.35C827.425 326.55 826.675 328.4 825.175 329.9C823.775 331.3 822.025 332 819.925 332ZM936.401 221C938.601 221 940.401 221.7 941.801 223.1C943.201 224.5 943.901 226.35 943.901 228.65V324.35C943.901 326.55 943.201 328.4 941.801 329.9C940.401 331.3 938.601 332 936.401 332C934.301 332 932.501 331.3 931.001 329.9C929.601 328.4 928.901 326.55 928.901 324.35V313.55L932.051 313.7C932.051 315.5 931.301 317.55 929.801 319.85C928.401 322.05 926.451 324.2 923.951 326.3C921.451 328.4 918.501 330.15 915.101 331.55C911.701 332.85 908.051 333.5 904.151 333.5C897.251 333.5 891.051 331.75 885.551 328.25C880.051 324.65 875.701 319.8 872.501 313.7C869.301 307.5 867.701 300.4 867.701 292.4C867.701 284.4 869.301 277.35 872.501 271.25C875.701 265.05 880.001 260.2 885.401 256.7C890.901 253.1 897.001 251.3 903.701 251.3C907.901 251.3 911.801 252 915.401 253.4C919.101 254.8 922.301 256.6 925.001 258.8C927.701 261 929.801 263.35 931.301 265.85C932.801 268.25 933.551 270.55 933.551 272.75L928.901 273.2V228.65C928.901 226.45 929.601 224.65 931.001 223.25C932.501 221.75 934.301 221 936.401 221ZM905.801 319.7C910.601 319.7 914.751 318.5 918.251 316.1C921.851 313.7 924.651 310.45 926.651 306.35C928.651 302.25 929.651 297.6 929.651 292.4C929.651 287.2 928.651 282.55 926.651 278.45C924.651 274.35 921.851 271.1 918.251 268.7C914.651 266.3 910.501 265.1 905.801 265.1C901.201 265.1 897.101 266.3 893.501 268.7C890.001 271.1 887.201 274.35 885.101 278.45C883.101 282.55 882.101 287.2 882.101 292.4C882.101 297.6 883.101 302.25 885.101 306.35C887.201 310.45 890.001 313.7 893.501 316.1C897.101 318.5 901.201 319.7 905.801 319.7ZM960.265 319.7C959.365 318.3 958.965 316.7 959.065 314.9C959.165 313 960.215 311.4 962.215 310.1C963.615 309.2 965.065 308.85 966.565 309.05C968.165 309.15 969.665 309.9 971.065 311.3C973.865 314.4 976.965 316.85 980.365 318.65C983.865 320.45 988.065 321.35 992.965 321.35C994.965 321.25 997.015 320.95 999.115 320.45C1001.22 319.85 1003.02 318.85 1004.52 317.45C1006.02 315.95 1006.77 313.8 1006.77 311C1006.77 308.5 1005.97 306.5 1004.37 305C1002.77 303.5 1000.67 302.3 998.065 301.4C995.465 300.4 992.665 299.5 989.665 298.7C986.465 297.8 983.215 296.8 979.915 295.7C976.715 294.6 973.815 293.2 971.215 291.5C968.615 289.7 966.465 287.4 964.765 284.6C963.165 281.8 962.365 278.35 962.365 274.25C962.365 269.55 963.665 265.5 966.265 262.1C968.965 258.7 972.415 256.05 976.615 254.15C980.915 252.25 985.565 251.3 990.565 251.3C993.465 251.3 996.515 251.7 999.715 252.5C1002.92 253.2 1006.02 254.35 1009.02 255.95C1012.02 257.55 1014.62 259.65 1016.82 262.25C1017.82 263.55 1018.37 265.1 1018.47 266.9C1018.67 268.7 1017.87 270.3 1016.07 271.7C1014.87 272.7 1013.42 273.15 1011.72 273.05C1010.02 272.95 1008.62 272.4 1007.52 271.4C1005.62 269 1003.17 267.15 1000.17 265.85C997.165 264.45 993.765 263.75 989.965 263.75C988.065 263.75 986.065 264.05 983.965 264.65C981.965 265.15 980.265 266.1 978.865 267.5C977.465 268.9 976.765 270.95 976.765 273.65C976.765 276.15 977.565 278.15 979.165 279.65C980.865 281.15 983.065 282.4 985.765 283.4C988.465 284.4 991.415 285.3 994.615 286.1C997.715 286.9 1000.77 287.85 1003.77 288.95C1006.87 290.05 1009.62 291.5 1012.02 293.3C1014.52 295 1016.52 297.25 1018.02 300.05C1019.62 302.75 1020.42 306.2 1020.42 310.4C1020.42 315.3 1018.97 319.5 1016.07 323C1013.27 326.4 1009.67 329 1005.27 330.8C1000.97 332.6 996.415 333.5 991.615 333.5C985.915 333.5 980.215 332.5 974.515 330.5C968.915 328.4 964.165 324.8 960.265 319.7Z" fill="#F5F5F5"/>
<path d="M30.6541 227.75L31.0732 226.842L31.0732 226.842L30.6541 227.75ZM33.6541 230.3L32.8104 230.837L32.8181 230.849L33.6541 230.3ZM71.7541 288.35L71.7076 289.349L73.6656 289.44L72.5901 287.801L71.7541 288.35ZM65.3041 288.05L64.4744 287.492L63.4824 288.966L65.2576 289.049L65.3041 288.05ZM104.154 230.3L103.333 229.729L103.329 229.735L103.324 229.742L104.154 230.3ZM115.554 229.1L114.847 229.807L114.871 229.831L114.896 229.853L115.554 229.1ZM115.854 329.9L116.561 330.607L116.573 330.595L116.585 330.582L115.854 329.9ZM104.454 329.9L103.723 330.582L103.747 330.608L103.772 330.631L104.454 329.9ZM102.354 248.3L102.568 247.323L101.354 247.058V248.3H102.354ZM107.154 249.35L107.99 249.899L108.788 248.684L107.368 248.373L107.154 249.35ZM74.1541 299.6L74.9435 300.214L74.968 300.182L74.99 300.149L74.1541 299.6ZM71.4541 302L71.933 302.878L71.9625 302.862L71.991 302.844L71.4541 302ZM68.0041 302.75L68.0872 301.753L68.0003 301.746L67.9136 301.754L68.0041 302.75ZM64.5541 302L64.0172 302.844L64.0607 302.871L64.1069 302.894L64.5541 302ZM61.8541 299.6L61.0128 300.14L61.0371 300.178L61.0648 300.214L61.8541 299.6ZM30.0541 250.1L29.1966 249.586L28.8771 250.118L29.2128 250.64L30.0541 250.1ZM33.6541 244.1H34.6541V240.49L32.7966 243.586L33.6541 244.1ZM31.5541 329.9L30.823 329.218L30.8213 329.22L31.5541 329.9ZM21.0541 329.9L20.2984 330.555L20.3218 330.582L20.347 330.607L21.0541 329.9ZM21.3541 229.1L20.6702 228.37L20.6584 228.381L20.647 228.393L21.3541 229.1ZM26.9041 227.85C27.9342 227.85 29.0414 228.107 30.235 228.658L31.0732 226.842C29.6668 226.193 28.274 225.85 26.9041 225.85V227.85ZM30.235 228.658C31.3786 229.186 32.2235 229.914 32.8104 230.837L34.4978 229.763C33.6847 228.486 32.5296 227.514 31.0732 226.842L30.235 228.658ZM32.8181 230.849L70.9181 288.899L72.5901 287.801L34.4901 229.751L32.8181 230.849ZM71.8006 287.351L65.3506 287.051L65.2576 289.049L71.7076 289.349L71.8006 287.351ZM66.1338 288.608L104.984 230.858L103.324 229.742L64.4744 287.492L66.1338 288.608ZM104.975 230.871C106.414 228.802 108.175 227.85 110.304 227.85V225.85C107.433 225.85 105.094 227.198 103.333 229.729L104.975 230.871ZM110.304 227.85C112.022 227.85 113.522 228.482 114.847 229.807L116.261 228.393C114.586 226.718 112.587 225.85 110.304 225.85V227.85ZM114.896 229.853C116.27 231.055 116.954 232.577 116.954 234.5H118.954C118.954 232.023 118.038 229.945 116.213 228.347L114.896 229.853ZM116.954 234.5V324.35H118.954V234.5H116.954ZM116.954 324.35C116.954 326.317 116.337 327.917 115.123 329.218L116.585 330.582C118.171 328.883 118.954 326.783 118.954 324.35H116.954ZM115.147 329.193C113.965 330.375 112.385 331 110.304 331V333C112.823 333 114.943 332.225 116.561 330.607L115.147 329.193ZM110.304 331C108.112 331 106.42 330.367 105.136 329.169L103.772 330.631C105.488 332.233 107.697 333 110.304 333V331ZM105.185 329.218C103.971 327.917 103.354 326.317 103.354 324.35H101.354C101.354 326.783 102.137 328.883 103.723 330.582L105.185 329.218ZM103.354 324.35V248.3H101.354V324.35H103.354ZM102.14 249.277L106.94 250.327L107.368 248.373L102.568 247.323L102.14 249.277ZM106.318 248.801L73.3182 299.051L74.99 300.149L107.99 249.899L106.318 248.801ZM73.3648 298.986C72.7444 299.784 71.9342 300.509 70.9172 301.156L71.991 302.844C73.174 302.091 74.1638 301.216 74.9435 300.214L73.3648 298.986ZM70.9753 301.122C70.0396 301.632 69.0841 301.837 68.0872 301.753L67.9211 303.747C69.3241 303.863 70.6686 303.568 71.933 302.878L70.9753 301.122ZM67.9136 301.754C67.035 301.834 66.0708 301.64 65.0013 301.106L64.1069 302.894C65.4374 303.56 66.7732 303.866 68.0946 303.746L67.9136 301.754ZM65.091 301.156C64.074 300.509 63.2638 299.784 62.6435 298.986L61.0648 300.214C61.8444 301.216 62.8342 302.091 64.0172 302.844L65.091 301.156ZM62.6954 299.06L30.8954 249.559L29.2128 250.64L61.0128 300.14L62.6954 299.06ZM30.9116 250.614L34.5116 244.614L32.7966 243.586L29.1966 249.586L30.9116 250.614ZM32.6541 244.1V324.35H34.6541V244.1H32.6541ZM32.6541 324.35C32.6541 326.317 32.037 327.917 30.823 329.218L32.2852 330.582C33.8712 328.883 34.6541 326.783 34.6541 324.35H32.6541ZM30.8213 329.22C29.7398 330.384 28.2723 331 26.3041 331V333C28.7359 333 30.7684 332.216 32.2869 330.58L30.8213 329.22ZM26.3041 331C24.4515 331 22.9614 330.393 21.7612 329.193L20.347 330.607C21.9468 332.207 23.9567 333 26.3041 333V331ZM21.8098 329.245C20.6848 327.947 20.1041 326.337 20.1041 324.35H18.1041C18.1041 326.763 18.8234 328.853 20.2984 330.555L21.8098 329.245ZM20.1041 324.35V234.5H18.1041V324.35H20.1041ZM20.1041 234.5C20.1041 232.668 20.7466 231.122 22.0612 229.807L20.647 228.393C18.9616 230.078 18.1041 232.132 18.1041 234.5H20.1041ZM22.038 229.83C23.4618 228.495 25.0703 227.85 26.9041 227.85V225.85C24.5379 225.85 22.4464 226.705 20.6702 228.37L22.038 229.83ZM204.844 255.35L204.113 256.032L204.136 256.058L204.162 256.081L204.844 255.35ZM198.394 324.65L199.101 325.357L199.107 325.351L198.394 324.65ZM149.344 324.65L148.625 325.345L148.631 325.351L148.637 325.357L149.344 324.65ZM142.894 255.35L143.601 256.057L143.613 256.045L143.625 256.032L142.894 255.35ZM153.544 255.35L152.813 256.032L152.836 256.058L152.862 256.081L153.544 255.35ZM160.294 314.75L159.564 315.434L159.57 315.44L159.576 315.446L160.294 314.75ZM187.444 314.75L186.726 314.054L187.444 314.75ZM194.194 255.35L194.901 256.057L194.913 256.045L194.925 256.032L194.194 255.35ZM199.594 254.1C201.424 254.1 202.907 254.74 204.113 256.032L205.575 254.668C203.981 252.96 201.964 252.1 199.594 252.1V254.1ZM204.162 256.081C205.443 257.277 206.094 258.805 206.094 260.75H208.094C208.094 258.295 207.245 256.223 205.526 254.619L204.162 256.081ZM206.094 260.75V300.2H208.094V260.75H206.094ZM206.094 300.2C206.094 310.409 203.253 318.281 197.681 323.949L199.107 325.351C205.135 319.219 208.094 310.791 208.094 300.2H206.094ZM197.687 323.943C192.125 329.505 184.21 332.35 173.794 332.35V334.35C184.578 334.35 193.063 331.395 199.101 325.357L197.687 323.943ZM173.794 332.35C163.481 332.35 155.615 329.507 150.051 323.943L148.637 325.357C154.673 331.393 163.107 334.35 173.794 334.35V332.35ZM150.063 323.955C144.588 318.288 141.794 310.413 141.794 300.2H139.794C139.794 310.787 142.7 319.212 148.625 325.345L150.063 323.955ZM141.794 300.2V260.75H139.794V300.2H141.794ZM141.794 260.75C141.794 258.783 142.41 257.248 143.601 256.057L142.187 254.643C140.578 256.252 139.794 258.317 139.794 260.75H141.794ZM143.625 256.032C144.821 254.751 146.349 254.1 148.294 254.1V252.1C145.839 252.1 143.767 252.949 142.163 254.668L143.625 256.032ZM148.294 254.1C150.124 254.1 151.607 254.74 152.813 256.032L154.275 254.668C152.681 252.96 150.664 252.1 148.294 252.1V254.1ZM152.862 256.081C154.143 257.277 154.794 258.805 154.794 260.75H156.794C156.794 258.295 155.945 256.223 154.226 254.619L152.862 256.081ZM154.794 260.75V300.2H156.794V260.75H154.794ZM154.794 300.2C154.794 306.834 156.323 311.976 159.564 315.434L161.023 314.066C158.265 311.124 156.794 306.566 156.794 300.2H154.794ZM159.576 315.446C162.919 318.897 167.715 320.55 173.794 320.55V318.55C168.073 318.55 163.869 317.003 161.012 314.054L159.576 315.446ZM173.794 320.55C179.968 320.55 184.816 318.9 188.162 315.446L186.726 314.054C183.872 317 179.62 318.55 173.794 318.55V320.55ZM188.162 315.446C191.511 311.989 193.094 306.841 193.094 300.2H191.094C191.094 306.559 189.577 311.111 186.726 314.054L188.162 315.446ZM193.094 300.2V260.75H191.094V300.2H193.094ZM193.094 260.75C193.094 258.783 193.71 257.248 194.901 256.057L193.487 254.643C191.878 256.252 191.094 258.317 191.094 260.75H193.094ZM194.925 256.032C196.121 254.751 197.649 254.1 199.594 254.1V252.1C197.139 252.1 195.067 252.949 193.463 254.668L194.925 256.032ZM223.302 319.7L222.461 320.241L222.483 320.275L222.508 320.307L223.302 319.7ZM222.102 314.9L223.101 314.955L223.101 314.953L222.102 314.9ZM225.252 310.1L224.711 309.259L224.707 309.262L225.252 310.1ZM229.602 309.05L229.47 310.041L229.505 310.046L229.54 310.048L229.602 309.05ZM234.102 311.3L234.844 310.63L234.827 310.611L234.809 310.593L234.102 311.3ZM243.402 318.65L242.934 319.534L242.945 319.539L243.402 318.65ZM256.002 321.35V322.35H256.027L256.052 322.349L256.002 321.35ZM262.152 320.45L262.384 321.423L262.405 321.418L262.427 321.412L262.152 320.45ZM267.552 317.45L268.234 318.181L268.247 318.169L268.259 318.157L267.552 317.45ZM261.102 301.4L260.743 302.333L260.759 302.339L260.775 302.345L261.102 301.4ZM252.702 298.7L252.431 299.663L252.444 299.666L252.702 298.7ZM242.952 295.7L242.627 296.646L242.636 296.649L242.952 295.7ZM234.252 291.5L233.683 292.322L233.694 292.33L233.705 292.337L234.252 291.5ZM227.802 284.6L226.934 285.096L226.94 285.108L226.947 285.119L227.802 284.6ZM229.302 262.1L228.519 261.478L228.513 261.485L228.508 261.493L229.302 262.1ZM239.652 254.15L239.248 253.235L239.24 253.239L239.652 254.15ZM262.752 252.5L262.51 253.47L262.524 253.474L262.538 253.477L262.752 252.5ZM272.052 255.95L272.523 255.068L272.052 255.95ZM279.852 262.25L280.645 261.64L280.631 261.622L280.616 261.604L279.852 262.25ZM281.502 266.9L280.504 266.955L280.505 266.983L280.508 267.01L281.502 266.9ZM279.102 271.7L278.488 270.911L278.475 270.921L278.462 270.932L279.102 271.7ZM274.752 273.05L274.693 274.048L274.752 273.05ZM270.552 271.4L269.768 272.021L269.819 272.085L269.879 272.14L270.552 271.4ZM263.202 265.85L262.779 266.756L262.792 266.762L262.805 266.768L263.202 265.85ZM247.002 264.65L247.245 265.62L247.261 265.616L247.277 265.612L247.002 264.65ZM241.902 267.5L242.609 268.207V268.207L241.902 267.5ZM242.202 279.65L241.518 280.38L241.529 280.39L241.541 280.4L242.202 279.65ZM248.802 283.4L248.455 284.338L248.802 283.4ZM257.652 286.1L257.902 285.132L257.895 285.13L257.652 286.1ZM266.802 288.95L266.458 289.889L266.468 289.892L266.802 288.95ZM275.052 293.3L274.452 294.1L274.471 294.114L274.49 294.127L275.052 293.3ZM281.052 300.05L280.171 300.522L280.181 300.541L280.192 300.56L281.052 300.05ZM279.102 323L278.332 322.362L278.33 322.364L279.102 323ZM268.302 330.8L267.923 329.874L267.916 329.878L268.302 330.8ZM237.552 330.5L237.201 331.436L237.211 331.44L237.221 331.444L237.552 330.5ZM224.143 319.159C223.367 317.951 223.011 316.564 223.101 314.955L221.104 314.845C220.993 316.836 221.437 318.649 222.461 320.241L224.143 319.159ZM223.101 314.953C223.18 313.453 223.99 312.113 225.797 310.938L224.707 309.262C222.515 310.687 221.225 312.547 221.104 314.847L223.101 314.953ZM225.793 310.941C227.015 310.156 228.229 309.876 229.47 310.041L229.734 308.059C227.975 307.824 226.289 308.244 224.711 309.259L225.793 310.941ZM229.54 310.048C230.843 310.13 232.125 310.737 233.395 312.007L234.809 310.593C233.279 309.063 231.561 308.17 229.665 308.052L229.54 310.048ZM233.36 311.97C236.232 315.149 239.423 317.675 242.934 319.534L243.87 317.766C240.582 316.025 237.573 313.651 234.844 310.63L233.36 311.97ZM242.945 319.539C246.617 321.428 250.981 322.35 256.002 322.35V320.35C251.223 320.35 247.188 319.472 243.859 317.761L242.945 319.539ZM256.052 322.349C258.118 322.245 260.229 321.936 262.384 321.423L261.921 319.477C259.876 319.964 257.886 320.255 255.952 320.351L256.052 322.349ZM262.427 321.412C264.669 320.771 266.611 319.696 268.234 318.181L266.87 316.719C265.493 318.004 263.835 318.929 261.877 319.488L262.427 321.412ZM268.259 318.157C270.001 316.415 270.802 313.977 270.802 311H268.802C268.802 313.623 268.103 315.485 266.845 316.743L268.259 318.157ZM270.802 311C270.802 308.266 269.917 305.987 268.086 304.27L266.718 305.73C268.088 307.013 268.802 308.734 268.802 311H270.802ZM268.086 304.27C266.361 302.653 264.129 301.39 261.429 300.455L260.775 302.345C263.275 303.21 265.243 304.347 266.718 305.73L268.086 304.27ZM261.461 300.467C258.824 299.453 255.99 298.542 252.96 297.734L252.444 299.666C255.414 300.458 258.18 301.347 260.743 302.333L261.461 300.467ZM252.973 297.737C249.789 296.842 246.554 295.847 243.268 294.751L242.636 296.649C245.95 297.753 249.215 298.758 252.431 299.663L252.973 297.737ZM243.277 294.754C240.149 293.679 237.324 292.314 234.799 290.663L233.705 292.337C236.38 294.086 239.356 295.521 242.627 296.646L243.277 294.754ZM234.821 290.678C232.341 288.961 230.287 286.765 228.657 284.081L226.947 285.119C228.718 288.035 230.963 290.439 233.683 292.322L234.821 290.678ZM228.67 284.104C227.177 281.491 226.402 278.222 226.402 274.25H224.402C224.402 278.478 225.227 282.109 226.934 285.096L228.67 284.104ZM226.402 274.25C226.402 269.747 227.643 265.916 230.097 262.707L228.508 261.493C225.761 265.084 224.402 269.353 224.402 274.25H226.402ZM230.085 262.722C232.68 259.454 236 256.9 240.064 255.061L239.24 253.239C234.904 255.2 231.324 257.946 228.519 261.478L230.085 262.722ZM240.056 255.065C244.221 253.224 248.732 252.3 253.602 252.3V250.3C248.472 250.3 243.683 251.276 239.248 253.235L240.056 255.065ZM253.602 252.3C256.41 252.3 259.378 252.687 262.51 253.47L262.995 251.53C259.726 250.713 256.594 250.3 253.602 250.3V252.3ZM262.538 253.477C265.646 254.157 268.659 255.274 271.582 256.832L272.523 255.068C269.445 253.426 266.259 252.243 262.966 251.523L262.538 253.477ZM271.582 256.832C274.47 258.373 276.97 260.392 279.089 262.896L280.616 261.604C278.334 258.908 275.635 256.727 272.523 255.068L271.582 256.832ZM279.06 262.86C279.924 263.984 280.414 265.336 280.504 266.955L282.501 266.845C282.391 264.864 281.78 263.116 280.645 261.64L279.06 262.86ZM280.508 267.01C280.66 268.373 280.095 269.661 278.488 270.911L279.716 272.489C281.709 270.939 282.745 269.027 282.496 266.79L280.508 267.01ZM278.462 270.932C277.476 271.754 276.282 272.138 274.811 272.052L274.693 274.048C276.622 274.162 278.329 273.646 279.742 272.468L278.462 270.932ZM274.811 272.052C273.304 271.963 272.132 271.484 271.225 270.66L269.879 272.14C271.173 273.316 272.8 273.937 274.693 274.048L274.811 272.052ZM271.336 270.779C269.327 268.241 266.74 266.293 263.6 264.932L262.805 266.768C265.664 268.007 267.977 269.759 269.768 272.021L271.336 270.779ZM263.625 264.944C260.474 263.474 256.927 262.75 253.002 262.75V264.75C256.678 264.75 259.93 265.426 262.779 266.756L263.625 264.944ZM253.002 262.75C250.997 262.75 248.904 263.067 246.727 263.688L247.277 265.612C249.301 265.033 251.208 264.75 253.002 264.75V262.75ZM246.76 263.68C244.591 264.222 242.729 265.259 241.195 266.793L242.609 268.207C243.876 266.941 245.413 266.078 247.245 265.62L246.76 263.68ZM241.195 266.793C239.548 268.44 238.802 270.784 238.802 273.65H240.802C240.802 271.116 241.457 269.36 242.609 268.207L241.195 266.793ZM238.802 273.65C238.802 276.384 239.688 278.663 241.518 280.38L242.886 278.92C241.517 277.637 240.802 275.916 240.802 273.65H238.802ZM241.541 280.4C243.354 282 245.669 283.306 248.455 284.338L249.149 282.462C246.535 281.494 244.45 280.3 242.864 278.9L241.541 280.4ZM248.455 284.338C251.194 285.352 254.179 286.263 257.41 287.07L257.895 285.13C254.725 284.337 251.811 283.448 249.149 282.462L248.455 284.338ZM257.402 287.068C260.47 287.86 263.489 288.8 266.458 289.889L267.146 288.011C264.115 286.9 261.034 285.94 257.902 285.132L257.402 287.068ZM266.468 289.892C269.482 290.962 272.14 292.366 274.452 294.1L275.652 292.5C273.164 290.634 270.323 289.138 267.137 288.008L266.468 289.892ZM274.49 294.127C276.85 295.732 278.743 297.857 280.171 300.522L281.934 299.578C280.361 296.643 278.255 294.268 275.614 292.473L274.49 294.127ZM280.192 300.56C281.674 303.062 282.452 306.321 282.452 310.4H284.452C284.452 306.079 283.63 302.438 281.912 299.54L280.192 300.56ZM282.452 310.4C282.452 315.087 281.071 319.056 278.332 322.362L279.872 323.638C282.933 319.944 284.452 315.513 284.452 310.4H282.452ZM278.33 322.364C275.644 325.627 272.183 328.132 267.924 329.874L268.681 331.726C273.221 329.868 276.961 327.173 279.874 323.636L278.33 322.364ZM267.916 329.878C263.742 331.625 259.324 332.5 254.652 332.5V334.5C259.581 334.5 264.262 333.575 268.688 331.722L267.916 329.878ZM254.652 332.5C249.071 332.5 243.483 331.521 237.883 329.556L237.221 331.444C243.021 333.479 248.833 334.5 254.652 334.5V332.5ZM237.903 329.564C232.492 327.534 227.891 324.055 224.097 319.093L222.508 320.307C226.513 325.545 231.412 329.266 237.201 331.436L237.903 329.564ZM311.583 329.9L312.29 330.607L312.302 330.595L312.314 330.582L311.583 329.9ZM300.783 329.9L300.052 330.582L300.075 330.608L300.101 330.631L300.783 329.9ZM300.783 254.75L300.076 254.043L300.783 254.75ZM311.583 254.75L310.852 255.432L310.864 255.445L310.876 255.457L311.583 254.75ZM299.733 241.1L299.087 241.863L299.105 241.878L299.123 241.893L299.733 241.1ZM299.883 228.05L300.464 228.864L299.883 228.05ZM312.633 228.2L311.987 228.963L312.005 228.978L312.023 228.993L312.633 228.2ZM312.483 241.1L311.902 240.286L311.887 240.297L311.873 240.307L312.483 241.1ZM312.683 324.35C312.683 326.317 312.066 327.917 310.852 329.218L312.314 330.582C313.9 328.883 314.683 326.783 314.683 324.35H312.683ZM310.876 329.193C309.685 330.384 308.15 331 306.183 331V333C308.616 333 310.681 332.216 312.29 330.607L310.876 329.193ZM306.183 331C304.33 331 302.775 330.392 301.465 329.169L300.101 330.631C301.791 332.208 303.836 333 306.183 333V331ZM301.514 329.218C300.3 327.917 299.683 326.317 299.683 324.35H297.683C297.683 326.783 298.466 328.883 300.052 330.582L301.514 329.218ZM299.683 324.35V260.15H297.683V324.35H299.683ZM299.683 260.15C299.683 258.183 300.299 256.648 301.49 255.457L300.076 254.043C298.467 255.652 297.683 257.717 297.683 260.15H299.683ZM301.49 255.457C302.805 254.142 304.351 253.5 306.183 253.5V251.5C303.815 251.5 301.761 252.357 300.076 254.043L301.49 255.457ZM306.183 253.5C308.128 253.5 309.656 254.151 310.852 255.432L312.314 254.068C310.71 252.349 308.638 251.5 306.183 251.5V253.5ZM310.876 255.457C312.067 256.648 312.683 258.183 312.683 260.15H314.683C314.683 257.717 313.899 255.652 312.29 254.043L310.876 255.457ZM312.683 260.15V324.35H314.683V260.15H312.683ZM306.033 241.6C303.203 241.6 301.378 241.103 300.343 240.307L299.123 241.893C300.688 243.097 303.063 243.6 306.033 243.6V241.6ZM300.379 240.337C299.393 239.502 298.783 238.047 298.783 235.7H296.783C296.783 238.353 297.474 240.498 299.087 241.863L300.379 240.337ZM298.783 235.7V233.3H296.783V235.7H298.783ZM298.783 233.3C298.783 230.968 299.432 229.601 300.464 228.864L299.302 227.236C297.534 228.499 296.783 230.632 296.783 233.3H298.783ZM300.464 228.864C301.618 228.04 303.472 227.55 306.183 227.55V225.55C303.294 225.55 300.948 226.06 299.302 227.236L300.464 228.864ZM306.183 227.55C309.109 227.55 310.962 228.096 311.987 228.963L313.279 227.437C311.704 226.104 309.257 225.55 306.183 225.55V227.55ZM312.023 228.993C312.979 229.728 313.583 231.061 313.583 233.3H315.583C315.583 230.739 314.887 228.672 313.243 227.407L312.023 228.993ZM313.583 233.3V235.7H315.583V233.3H313.583ZM313.583 235.7C313.583 238.149 312.925 239.556 311.902 240.286L313.064 241.914C314.841 240.644 315.583 238.451 315.583 235.7H313.583ZM311.873 240.307C310.843 241.1 308.973 241.6 306.033 241.6V243.6C309.093 243.6 311.523 243.1 313.093 241.893L311.873 240.307ZM383.21 253.1L382.936 254.062L382.946 254.065L382.957 254.067L383.21 253.1ZM392.96 257.9L392.286 258.638L392.303 258.654L392.32 258.668L392.96 257.9ZM395.06 269.75L395.874 270.331L395.883 270.318L395.892 270.305L395.06 269.75ZM386.96 271.1L386.475 271.974L386.494 271.985L386.513 271.994L386.96 271.1ZM384.41 269.3L383.752 270.053L384.41 269.3ZM381.41 267.2L381.914 266.336L381.902 266.329L381.889 266.322L381.41 267.2ZM376.46 265.7L376.273 266.682L376.281 266.684L376.46 265.7ZM356.96 268.7L356.436 267.848L356.426 267.855L356.96 268.7ZM347.96 278.45L347.079 277.977L347.075 277.986L347.07 277.994L347.96 278.45ZM347.96 306.35L347.07 306.806L347.075 306.814L347.079 306.823L347.96 306.35ZM356.81 316.1L356.266 316.939L356.276 316.945L356.81 316.1ZM377.36 319.1L377.566 320.079L377.591 320.073L377.615 320.067L377.36 319.1ZM382.31 317.3L382.758 318.194L382.792 318.177L382.825 318.157L382.31 317.3ZM386.06 314.6L386.729 315.343L386.733 315.34L386.06 314.6ZM395.51 315.2L394.724 315.818L394.749 315.849L394.776 315.878L395.51 315.2ZM393.26 326.6L393.87 327.393L393.874 327.389L393.26 326.6ZM347.81 328.1L347.276 328.946L347.283 328.95L347.81 328.1ZM334.46 313.4L333.566 313.847L333.572 313.859L334.46 313.4ZM334.76 271.4L335.64 271.876L335.643 271.87L334.76 271.4ZM348.56 256.7L349.081 257.554L348.56 256.7ZM368.81 252.3C374.138 252.3 378.843 252.892 382.936 254.062L383.485 252.138C379.178 250.908 374.282 250.3 368.81 250.3V252.3ZM382.957 254.067C387.059 255.142 390.144 256.682 392.286 258.638L393.635 257.162C391.177 254.918 387.762 253.258 383.464 252.133L382.957 254.067ZM392.32 258.668C394.532 260.512 395.56 262.595 395.56 264.95H397.56C397.56 261.905 396.189 259.288 393.601 257.132L392.32 258.668ZM395.56 264.95C395.56 266.44 395.126 267.849 394.228 269.195L395.892 270.305C396.995 268.651 397.56 266.86 397.56 264.95H395.56ZM394.247 269.169C393.467 270.261 392.298 270.85 390.56 270.85V272.85C392.823 272.85 394.654 272.039 395.874 270.331L394.247 269.169ZM390.56 270.85C389.277 270.85 388.238 270.621 387.408 270.206L386.513 271.994C387.683 272.579 389.043 272.85 390.56 272.85V270.85ZM387.446 270.226C386.61 269.761 385.817 269.202 385.069 268.547L383.752 270.053C384.603 270.798 385.511 271.439 386.475 271.974L387.446 270.226ZM385.069 268.547C384.209 267.795 383.154 267.059 381.914 266.336L380.906 268.064C382.067 268.741 383.012 269.405 383.752 270.053L385.069 268.547ZM381.889 266.322C380.649 265.646 378.875 265.123 376.639 264.716L376.281 266.684C378.445 267.077 379.971 267.554 380.931 268.078L381.889 266.322ZM376.647 264.718C374.501 264.309 372.537 264.1 370.76 264.1V266.1C372.384 266.1 374.22 266.291 376.273 266.682L376.647 264.718ZM370.76 264.1C365.305 264.1 360.517 265.337 356.436 267.848L357.484 269.552C361.203 267.263 365.616 266.1 370.76 266.1V264.1ZM356.426 267.855C352.475 270.35 349.358 273.731 347.079 277.977L348.842 278.923C350.963 274.969 353.846 271.85 357.494 269.545L356.426 267.855ZM347.07 277.994C344.889 282.252 343.81 287.062 343.81 292.4H345.81C345.81 287.338 346.832 282.847 348.85 278.906L347.07 277.994ZM343.81 292.4C343.81 297.738 344.889 302.548 347.07 306.806L348.85 305.894C346.832 301.952 345.81 297.462 345.81 292.4H343.81ZM347.079 306.823C349.354 311.063 352.417 314.442 356.266 316.939L357.355 315.261C353.804 312.958 350.966 309.837 348.842 305.877L347.079 306.823ZM356.276 316.945C360.254 319.458 364.843 320.7 370.01 320.7V318.7C365.177 318.7 360.967 317.542 357.344 315.255L356.276 316.945ZM370.01 320.7C373.047 320.7 375.573 320.498 377.566 320.079L377.154 318.121C375.348 318.502 372.974 318.7 370.01 318.7V320.7ZM377.615 320.067C379.565 319.554 381.283 318.932 382.758 318.194L381.863 316.406C380.538 317.068 378.955 317.646 377.106 318.133L377.615 320.067ZM382.825 318.157C384.364 317.234 385.67 316.297 386.729 315.343L385.391 313.857C384.451 314.703 383.256 315.566 381.796 316.443L382.825 318.157ZM386.733 315.34C387.602 314.55 388.838 314.1 390.56 314.1V312.1C388.483 312.1 386.719 312.65 385.388 313.86L386.733 315.34ZM390.56 314.1C392.533 314.1 393.858 314.716 394.724 315.818L396.297 314.582C394.963 312.884 392.987 312.1 390.56 312.1V314.1ZM394.776 315.878C395.783 316.969 396.31 318.366 396.31 320.15H398.31C398.31 317.934 397.638 316.031 396.245 314.522L394.776 315.878ZM396.31 320.15C396.31 321.902 395.24 323.793 392.646 325.811L393.874 327.389C396.681 325.207 398.31 322.798 398.31 320.15H396.31ZM392.651 325.807C390.179 327.709 386.803 329.313 382.477 330.591L383.044 332.509C387.518 331.187 391.142 329.491 393.87 327.393L392.651 325.807ZM382.477 330.591C378.182 331.86 373.429 332.5 368.21 332.5V334.5C373.592 334.5 378.539 333.84 383.044 332.509L382.477 330.591ZM368.21 332.5C360.57 332.5 353.958 330.739 348.338 327.25L347.283 328.95C353.263 332.661 360.251 334.5 368.21 334.5V332.5ZM348.344 327.255C342.8 323.753 338.47 318.989 335.349 312.941L333.572 313.859C336.85 320.211 341.42 325.247 347.276 328.945L348.344 327.255ZM335.355 312.953C332.332 306.908 330.81 300.064 330.81 292.4H328.81C328.81 300.336 330.388 307.492 333.566 313.847L335.355 312.953ZM330.81 292.4C330.81 284.643 332.429 277.81 335.64 271.876L333.881 270.924C330.491 277.19 328.81 284.357 328.81 292.4H330.81ZM335.643 271.87C338.86 265.825 343.337 261.059 349.081 257.554L348.039 255.846C341.984 259.541 337.26 264.575 333.878 270.93L335.643 271.87ZM349.081 257.554C354.809 254.059 361.375 252.3 368.81 252.3V250.3C361.045 250.3 354.112 252.141 348.039 255.846L349.081 257.554ZM457.742 329.9L457.101 330.668L457.114 330.679L457.128 330.689L457.742 329.9ZM457.292 229.25L457.974 229.981L457.987 229.969L457.999 229.957L457.292 229.25ZM519.842 231.05L519.327 231.907L519.334 231.912L519.341 231.916L519.842 231.05ZM530.642 242L529.774 242.498L529.781 242.509L529.787 242.52L530.642 242ZM532.442 269.45L533.355 269.856L533.359 269.847L532.442 269.45ZM516.842 285.35L515.976 285.851L516.414 286.607L517.222 286.275L516.842 285.35ZM515.192 282.5L515.526 281.558L512.964 280.649L514.326 283.001L515.192 282.5ZM523.292 287.3L522.617 288.038L522.626 288.047L522.635 288.055L523.292 287.3ZM528.692 294.5L527.785 294.921L527.794 294.941L527.804 294.96L528.692 294.5ZM530.942 303.8L529.942 303.829L529.943 303.863L529.946 303.896L530.942 303.8ZM531.692 311.6L530.696 311.695L530.699 311.722L530.703 311.748L531.692 311.6ZM532.892 316.55L533.825 316.191L532.892 316.55ZM535.592 319.55L536.077 318.676L536.066 318.67L535.592 319.55ZM538.892 324.05L537.911 324.246L537.916 324.269L537.921 324.293L538.892 324.05ZM537.692 329.45L536.915 328.819L536.903 328.834L536.892 328.85L537.692 329.45ZM534.242 331.85L534.466 332.824L534.492 332.819L534.516 332.812L534.242 331.85ZM530.192 332L529.982 332.978L530.016 332.985L530.05 332.99L530.192 332ZM526.592 330.8L526.062 331.648L526.102 331.673L526.144 331.694L526.592 330.8ZM521.642 326.6L520.877 327.244L520.895 327.266L520.915 327.287L521.642 326.6ZM517.742 318.8L518.699 318.51L517.742 318.8ZM515.042 299.3L515.955 298.894L515.042 299.3ZM511.742 294.95L511.091 295.709L511.107 295.723L511.124 295.736L511.742 294.95ZM506.792 292.4L506.49 293.354L506.514 293.361L506.537 293.367L506.792 292.4ZM468.692 291.5L467.872 290.927L466.771 292.5H468.692V291.5ZM470.792 288.5H471.792V285.328L469.972 287.927L470.792 288.5ZM468.992 329.9L469.751 330.551L469.762 330.538L469.772 330.525L468.992 329.9ZM468.842 278.45V277.45H467.046L467.991 278.976L468.842 278.45ZM504.692 278.45V279.45H504.713L504.735 279.449L504.692 278.45ZM511.292 275.75L511.921 276.527L511.925 276.524L511.292 275.75ZM516.542 268.55L515.635 268.127L515.63 268.14L515.624 268.152L516.542 268.55ZM514.292 246.35L513.529 246.997L513.54 247.009L513.551 247.022L514.292 246.35ZM469.142 241.4L468.221 241.01L467.633 242.4H469.142V241.4ZM470.792 237.5H471.792L469.871 237.11L470.792 237.5ZM470.792 281.6L469.941 282.126L471.792 285.115V281.6H470.792ZM464.042 331C461.851 331 459.97 330.367 458.356 329.111L457.128 330.689C459.113 332.233 461.432 333 464.042 333V331ZM458.382 329.132C456.793 327.808 456.042 326.232 456.042 324.35H454.042C454.042 326.868 455.09 328.992 457.101 330.668L458.382 329.132ZM456.042 324.35V234.65H454.042V324.35H456.042ZM456.042 234.65C456.042 232.705 456.692 231.177 457.974 229.981L456.609 228.519C454.891 230.123 454.042 232.195 454.042 234.65H456.042ZM457.999 229.957C459.313 228.642 460.86 228 462.692 228V226C460.323 226 458.27 226.857 456.585 228.543L457.999 229.957ZM462.692 228H504.992V226H462.692V228ZM504.992 228C510.216 228 514.987 229.304 519.327 231.907L520.356 230.193C515.696 227.396 510.567 226 504.992 226V228ZM519.341 231.916C523.682 234.424 527.158 237.944 529.774 242.498L531.509 241.502C528.725 236.656 525.001 232.876 520.342 230.184L519.341 231.916ZM529.787 242.52C532.481 246.946 533.842 252.062 533.842 257.9H535.842C535.842 251.738 534.402 246.254 531.496 241.48L529.787 242.52ZM533.842 257.9C533.842 261.762 533.07 265.477 531.524 269.053L533.359 269.847C535.013 266.023 535.842 262.038 535.842 257.9H533.842ZM531.528 269.044C529.975 272.539 527.89 275.641 525.272 278.356L526.711 279.744C529.493 276.859 531.709 273.561 533.355 269.856L531.528 269.044ZM525.272 278.356C522.662 281.062 519.726 283.081 516.461 284.425L517.222 286.275C520.757 284.819 523.921 282.638 526.711 279.744L525.272 278.356ZM517.707 284.849L516.057 281.999L514.326 283.001L515.976 285.851L517.707 284.849ZM514.857 283.442C517.839 284.5 520.421 286.033 522.617 288.038L523.966 286.562C521.562 284.367 518.745 282.7 515.526 281.558L514.857 283.442ZM522.635 288.055C524.828 289.961 526.543 292.247 527.785 294.921L529.599 294.079C528.24 291.153 526.355 288.639 523.948 286.545L522.635 288.055ZM527.804 294.96C529.125 297.508 529.846 300.456 529.942 303.829L531.941 303.771C531.838 300.144 531.058 296.892 529.579 294.04L527.804 294.96ZM529.946 303.896C530.246 306.996 530.496 309.595 530.696 311.695L532.687 311.505C532.487 309.405 532.237 306.804 531.937 303.704L529.946 303.896ZM530.703 311.748C531.009 313.791 531.423 315.518 531.958 316.909L533.825 316.191C533.36 314.982 532.974 313.409 532.681 311.452L530.703 311.748ZM531.958 316.909C532.549 318.446 533.621 319.625 535.117 320.43L536.066 318.67C534.962 318.075 534.234 317.254 533.825 316.191L531.958 316.909ZM535.106 320.424C536.652 321.283 537.569 322.537 537.911 324.246L539.872 323.854C539.414 321.563 538.131 319.817 536.077 318.676L535.106 320.424ZM537.921 324.293C538.345 325.987 538.017 327.464 536.915 328.819L538.468 330.081C539.966 328.236 540.438 326.113 539.862 323.807L537.921 324.293ZM536.892 328.85C536.118 329.881 535.15 330.55 533.967 330.888L534.516 332.812C536.133 332.35 537.465 331.419 538.492 330.05L536.892 328.85ZM534.017 330.876C532.844 331.146 531.618 331.194 530.333 331.01L530.05 332.99C531.565 333.206 533.039 333.154 534.466 332.824L534.017 330.876ZM530.401 331.022C529.062 330.735 527.946 330.359 527.039 329.906L526.144 331.694C527.237 332.241 528.521 332.665 529.982 332.978L530.401 331.022ZM527.122 329.952C525.612 329.009 524.027 327.669 522.369 325.913L520.915 327.287C522.656 329.131 524.371 330.591 526.062 331.648L527.122 329.952ZM522.406 325.956C520.921 324.192 519.674 321.727 518.699 318.51L516.785 319.09C517.81 322.473 519.162 325.208 520.877 327.244L522.406 325.956ZM518.699 318.51C517.738 315.342 517.242 311.101 517.242 305.75H515.242C515.242 311.199 515.745 315.658 516.785 319.09L518.699 318.51ZM517.242 305.75C517.242 303.146 516.825 300.851 515.955 298.894L514.128 299.706C514.858 301.349 515.242 303.354 515.242 305.75H517.242ZM515.955 298.894C515.096 296.961 513.901 295.375 512.359 294.164L511.124 295.736C512.382 296.725 513.387 298.039 514.128 299.706L515.955 298.894ZM512.392 294.191C510.87 292.886 509.082 291.969 507.046 291.433L506.537 293.367C508.301 293.831 509.813 294.614 511.091 295.709L512.392 294.191ZM507.093 291.446C505.082 290.811 502.878 290.5 500.492 290.5V292.5C502.705 292.5 504.702 292.789 506.49 293.354L507.093 291.446ZM500.492 290.5H468.692V292.5H500.492V290.5ZM469.511 292.073L471.611 289.073L469.972 287.927L467.872 290.927L469.511 292.073ZM469.792 288.5V324.35H471.792V288.5H469.792ZM469.792 324.35C469.792 326.358 469.249 327.978 468.211 329.275L469.772 330.525C471.135 328.822 471.792 326.742 471.792 324.35H469.792ZM468.232 329.249C467.25 330.395 465.895 331 464.042 331V333C466.388 333 468.333 332.205 469.751 330.551L468.232 329.249ZM468.842 279.45H504.692V277.45H468.842V279.45ZM504.735 279.449C507.284 279.338 509.684 278.338 511.921 276.527L510.662 274.973C508.699 276.562 506.699 277.362 504.648 277.451L504.735 279.449ZM511.925 276.524C514.266 274.609 516.105 272.072 517.459 268.948L515.624 268.152C514.378 271.028 512.718 273.291 510.658 274.976L511.925 276.524ZM517.448 268.973C518.918 265.822 519.642 262.275 519.642 258.35H517.642C517.642 262.025 516.965 265.278 515.635 268.127L517.448 268.973ZM519.642 258.35C519.642 253.332 518.118 249.083 515.033 245.678L513.551 247.022C516.265 250.017 517.642 253.768 517.642 258.35H519.642ZM515.054 245.703C512.088 242.207 508.47 240.4 504.242 240.4V242.4C507.813 242.4 510.896 243.893 513.529 246.997L515.054 245.703ZM504.242 240.4H469.142V242.4H504.242V240.4ZM470.063 241.79L471.713 237.89L469.871 237.11L468.221 241.01L470.063 241.79ZM469.792 237.5V281.6H471.792V237.5H469.792ZM471.642 281.074L469.692 277.924L467.991 278.976L469.941 282.126L471.642 281.074ZM569.909 328.4L569.411 329.267L569.422 329.273L569.909 328.4ZM555.659 314.15L554.779 314.626L554.784 314.634L554.789 314.643L555.659 314.15ZM555.959 270.8L555.091 270.304L555.088 270.308L555.959 270.8ZM569.909 256.4L570.41 257.265L570.421 257.259L569.909 256.4ZM602.009 254.3L601.595 255.21L601.604 255.214L601.612 255.218L602.009 254.3ZM613.709 262.4L612.992 263.097L613.002 263.107L613.012 263.117L613.709 262.4ZM621.959 274.55L621.039 274.942L621.042 274.949L621.959 274.55ZM625.109 289.7L626.108 289.75L626.109 289.716L626.109 289.682L625.109 289.7ZM622.709 294.65L622.054 293.894L622.709 294.65ZM559.109 296.6L558.146 296.872L558.352 297.6H559.109V296.6ZM555.509 283.85V282.85H554.187L554.546 284.122L555.509 283.85ZM611.909 283.85L612.597 284.576L614.418 282.85H611.909V283.85ZM609.059 286.55H608.059V288.875L609.747 287.276L609.059 286.55ZM609.059 282.8H610.059V282.771L610.057 282.743L609.059 282.8ZM605.609 273.65L604.819 274.264L604.825 274.271L604.831 274.278L605.609 273.65ZM597.809 267.5L597.373 268.4L597.385 268.406L597.397 268.411L597.809 267.5ZM579.359 266.75L579.675 267.699L579.685 267.695L579.695 267.692L579.359 266.75ZM572.009 271.25L571.318 270.527L571.31 270.535L571.302 270.543L572.009 271.25ZM566.909 279.65L565.971 279.302L565.969 279.309L565.966 279.317L566.909 279.65ZM568.559 306.8L567.687 307.289L568.559 306.8ZM577.859 316.4L577.351 317.261L577.359 317.266L577.367 317.271L577.859 316.4ZM599.909 318.65L600.189 319.61L600.207 319.605L600.225 319.599L599.909 318.65ZM610.109 312.65L609.594 311.793L609.528 311.832L609.469 311.882L610.109 312.65ZM619.109 313.25L618.374 313.928L618.388 313.943L618.402 313.957L619.109 313.25ZM617.609 323.6L616.976 322.826L616.944 322.852L616.915 322.88L617.609 323.6ZM606.359 330.5L605.974 329.577L605.967 329.58L606.359 330.5ZM591.509 332.5C583.347 332.5 576.321 330.829 570.396 327.527L569.422 329.273C575.697 332.771 583.071 334.5 591.509 334.5V332.5ZM570.406 327.533C564.459 324.12 559.839 319.498 556.529 313.657L554.789 314.643C558.279 320.802 563.159 325.68 569.411 329.267L570.406 327.533ZM556.538 313.674C553.327 307.738 551.709 300.955 551.709 293.3H549.709C549.709 301.245 551.391 308.362 554.779 314.626L556.538 313.674ZM551.709 293.3C551.709 284.632 553.432 277.31 556.83 271.292L555.088 270.308C551.485 276.69 549.709 284.368 549.709 293.3H551.709ZM556.827 271.296C560.349 265.133 564.878 260.468 570.41 257.265L569.408 255.535C563.54 258.932 558.769 263.867 555.091 270.304L556.827 271.296ZM570.421 257.259C575.972 253.948 581.846 252.3 588.059 252.3V250.3C581.472 250.3 575.245 252.052 569.396 255.541L570.421 257.259ZM588.059 252.3C592.818 252.3 597.327 253.27 601.595 255.21L602.423 253.39C597.891 251.33 593.099 250.3 588.059 250.3V252.3ZM601.612 255.218C605.89 257.065 609.681 259.689 612.992 263.097L614.426 261.703C610.936 258.111 606.928 255.335 602.405 253.382L601.612 255.218ZM613.012 263.117C616.412 266.42 619.088 270.358 621.039 274.942L622.879 274.158C620.829 269.342 618.005 265.18 614.406 261.683L613.012 263.117ZM621.042 274.949C622.985 279.417 624.011 284.336 624.109 289.718L626.109 289.682C626.006 284.063 624.933 278.883 622.876 274.151L621.042 274.949ZM624.11 289.65C624.023 291.381 623.346 292.775 622.054 293.894L623.364 295.406C625.072 293.925 625.994 292.019 626.108 289.75L624.11 289.65ZM622.054 293.894C620.737 295.035 619.22 295.6 617.459 295.6V297.6C619.697 297.6 621.68 296.865 623.364 295.406L622.054 293.894ZM617.459 295.6H559.109V297.6H617.459V295.6ZM560.071 296.328L556.471 283.578L554.546 284.122L558.146 296.872L560.071 296.328ZM555.509 284.85H611.909V282.85H555.509V284.85ZM611.221 283.124L608.371 285.824L609.747 287.276L612.597 284.576L611.221 283.124ZM610.059 286.55V282.8H608.059V286.55H610.059ZM610.057 282.743C609.846 279.045 608.625 275.793 606.387 273.022L604.831 274.278C606.793 276.707 607.872 279.555 608.06 282.857L610.057 282.743ZM606.398 273.036C604.199 270.208 601.469 268.056 598.22 266.589L597.397 268.411C600.348 269.744 602.819 271.692 604.819 274.264L606.398 273.036ZM598.244 266.6C595.01 265.035 591.612 264.25 588.059 264.25V266.25C591.306 266.25 594.407 266.965 597.373 268.4L598.244 266.6ZM588.059 264.25C584.945 264.25 581.931 264.769 579.022 265.808L579.695 267.692C582.386 266.731 585.172 266.25 588.059 266.25V264.25ZM579.043 265.801C576.193 266.751 573.617 268.332 571.318 270.527L572.699 271.973C574.8 269.968 577.124 268.549 579.675 267.699L579.043 265.801ZM571.302 270.543C569.077 272.767 567.309 275.701 565.971 279.302L567.846 279.998C569.109 276.599 570.74 273.933 572.716 271.957L571.302 270.543ZM565.966 279.317C564.716 282.858 564.109 287.23 564.109 292.4H566.109C566.109 287.37 566.702 283.242 567.852 279.983L565.966 279.317ZM564.109 292.4C564.109 298.042 565.29 303.016 567.687 307.289L569.431 306.311C567.228 302.384 566.109 297.758 566.109 292.4H564.109ZM567.687 307.289C570.07 311.537 573.293 314.868 577.351 317.261L578.367 315.539C574.625 313.332 571.648 310.263 569.431 306.311L567.687 307.289ZM577.367 317.271C581.425 319.56 585.896 320.7 590.759 320.7V318.7C586.222 318.7 582.093 317.64 578.35 315.529L577.367 317.271ZM590.759 320.7C594.513 320.7 597.666 320.346 600.189 319.61L599.629 317.69C597.352 318.354 594.405 318.7 590.759 318.7V320.7ZM600.225 319.599C602.689 318.777 604.779 317.79 606.475 316.624L605.342 314.976C603.839 316.01 601.929 316.923 599.593 317.701L600.225 319.599ZM606.475 316.624C608.095 315.511 609.52 314.442 610.749 313.418L609.469 311.882C608.297 312.858 606.923 313.889 605.342 314.976L606.475 316.624ZM610.623 313.507C611.994 312.685 613.318 312.3 614.609 312.3V310.3C612.899 310.3 611.224 310.815 609.594 311.793L610.623 313.507ZM614.609 312.3C616.135 312.3 617.367 312.837 618.374 313.928L619.844 312.572C618.451 311.063 616.682 310.3 614.609 310.3V312.3ZM618.402 313.957C619.414 314.969 619.909 316.165 619.909 317.6H621.909C621.909 315.635 621.204 313.931 619.816 312.543L618.402 313.957ZM619.909 317.6C619.909 319.417 619.017 321.156 616.976 322.826L618.242 324.374C620.601 322.444 621.909 320.183 621.909 317.6H619.909ZM616.915 322.88C614.332 325.367 610.701 327.608 605.974 329.577L606.743 331.423C611.617 329.392 615.486 327.033 618.302 324.32L616.915 322.88ZM605.967 329.58C601.393 331.526 596.577 332.5 591.509 332.5V334.5C596.841 334.5 601.924 333.474 606.75 331.42L605.967 329.58ZM691.413 253.1L691.139 254.062L691.149 254.065L691.16 254.067L691.413 253.1ZM701.163 257.9L700.489 258.638L700.506 258.654L700.523 258.668L701.163 257.9ZM703.263 269.75L704.077 270.331L704.087 270.318L704.096 270.305L703.263 269.75ZM695.163 271.1L694.678 271.974L694.697 271.985L694.716 271.994L695.163 271.1ZM692.613 269.3L691.955 270.053L692.613 269.3ZM689.613 267.2L690.117 266.336L690.105 266.329L690.092 266.322L689.613 267.2ZM684.663 265.7L684.476 266.682L684.485 266.684L684.663 265.7ZM665.163 268.7L664.639 267.848L664.629 267.855L665.163 268.7ZM656.163 278.45L655.282 277.977L655.278 277.986L655.273 277.994L656.163 278.45ZM656.163 306.35L655.273 306.806L655.278 306.814L655.282 306.823L656.163 306.35ZM665.013 316.1L664.469 316.939L664.479 316.945L665.013 316.1ZM685.563 319.1L685.769 320.079L685.794 320.073L685.818 320.067L685.563 319.1ZM690.513 317.3L690.961 318.194L690.995 318.177L691.028 318.157L690.513 317.3ZM694.263 314.6L694.932 315.343L694.936 315.34L694.263 314.6ZM703.714 315.2L702.927 315.818L702.952 315.849L702.979 315.878L703.714 315.2ZM701.464 326.6L702.073 327.393L702.077 327.389L701.464 326.6ZM656.013 328.1L655.479 328.946L655.486 328.95L656.013 328.1ZM642.663 313.4L641.769 313.847L641.775 313.859L642.663 313.4ZM642.964 271.4L643.843 271.876L643.846 271.87L642.964 271.4ZM656.763 256.7L657.284 257.554L656.763 256.7ZM677.013 252.3C682.342 252.3 687.046 252.892 691.139 254.062L691.688 252.138C687.381 250.908 682.485 250.3 677.013 250.3V252.3ZM691.16 254.067C695.262 255.142 698.347 256.682 700.489 258.638L701.838 257.162C699.38 254.918 695.965 253.258 691.667 252.133L691.16 254.067ZM700.523 258.668C702.735 260.512 703.763 262.595 703.763 264.95H705.763C705.763 261.905 704.392 259.288 701.804 257.132L700.523 258.668ZM703.763 264.95C703.763 266.44 703.329 267.849 702.431 269.195L704.096 270.305C705.198 268.651 705.763 266.86 705.763 264.95H703.763ZM702.45 269.169C701.67 270.261 700.501 270.85 698.763 270.85V272.85C701.026 272.85 702.857 272.039 704.077 270.331L702.45 269.169ZM698.763 270.85C697.48 270.85 696.441 270.621 695.611 270.206L694.716 271.994C695.886 272.579 697.246 272.85 698.763 272.85V270.85ZM695.649 270.226C694.813 269.761 694.021 269.202 693.272 268.547L691.955 270.053C692.806 270.798 693.714 271.439 694.678 271.974L695.649 270.226ZM693.272 268.547C692.412 267.795 691.357 267.059 690.117 266.336L689.11 268.064C690.27 268.741 691.215 269.405 691.955 270.053L693.272 268.547ZM690.092 266.322C688.852 265.646 687.079 265.123 684.842 264.716L684.485 266.684C686.648 267.077 688.174 267.554 689.135 268.078L690.092 266.322ZM684.851 264.718C682.704 264.309 680.74 264.1 678.964 264.1V266.1C680.587 266.1 682.423 266.291 684.476 266.682L684.851 264.718ZM678.964 264.1C673.508 264.1 668.72 265.337 664.639 267.848L665.688 269.552C669.406 267.263 673.819 266.1 678.964 266.1V264.1ZM664.629 267.855C660.678 270.35 657.561 273.731 655.282 277.977L657.045 278.923C659.166 274.969 662.049 271.85 665.697 269.545L664.629 267.855ZM655.273 277.994C653.092 282.252 652.013 287.062 652.013 292.4H654.013C654.013 287.338 655.035 282.847 657.054 278.906L655.273 277.994ZM652.013 292.4C652.013 297.738 653.092 302.548 655.273 306.806L657.054 305.894C655.035 301.952 654.013 297.462 654.013 292.4H652.013ZM655.282 306.823C657.557 311.063 660.62 314.442 664.469 316.939L665.558 315.261C662.007 312.958 659.169 309.837 657.045 305.877L655.282 306.823ZM664.479 316.945C668.457 319.458 673.046 320.7 678.214 320.7V318.7C673.381 318.7 669.17 317.542 665.547 315.255L664.479 316.945ZM678.214 320.7C681.25 320.7 683.776 320.498 685.769 320.079L685.357 318.121C683.551 318.502 681.177 318.7 678.214 318.7V320.7ZM685.818 320.067C687.768 319.554 689.486 318.932 690.961 318.194L690.066 316.406C688.741 317.068 687.158 317.646 685.309 318.133L685.818 320.067ZM691.028 318.157C692.568 317.234 693.873 316.297 694.932 315.343L693.595 313.857C692.654 314.703 691.459 315.566 689.999 316.443L691.028 318.157ZM694.936 315.34C695.805 314.55 697.041 314.1 698.763 314.1V312.1C696.686 312.1 694.922 312.65 693.591 313.86L694.936 315.34ZM698.763 314.1C700.736 314.1 702.061 314.716 702.927 315.818L704.5 314.582C703.166 312.884 701.19 312.1 698.763 312.1V314.1ZM702.979 315.878C703.986 316.969 704.513 318.366 704.513 320.15H706.513C706.513 317.934 705.841 316.031 704.448 314.522L702.979 315.878ZM704.513 320.15C704.513 321.902 703.443 323.793 700.85 325.811L702.077 327.389C704.884 325.207 706.513 322.798 706.513 320.15H704.513ZM700.854 325.807C698.382 327.709 695.006 329.313 690.68 330.591L691.247 332.509C695.721 331.187 699.345 329.491 702.073 327.393L700.854 325.807ZM690.68 330.591C686.385 331.86 681.632 332.5 676.413 332.5V334.5C681.795 334.5 686.742 333.84 691.247 332.509L690.68 330.591ZM676.413 332.5C668.773 332.5 662.161 330.739 656.541 327.25L655.486 328.95C661.466 332.661 668.454 334.5 676.413 334.5V332.5ZM656.547 327.255C651.003 323.753 646.673 318.989 643.552 312.941L641.775 313.859C645.054 320.211 649.624 325.247 655.479 328.945L656.547 327.255ZM643.558 312.953C640.536 306.908 639.013 300.064 639.013 292.4H637.013C637.013 300.336 638.591 307.492 641.769 313.847L643.558 312.953ZM639.013 292.4C639.013 284.643 640.633 277.81 643.843 271.876L642.084 270.924C638.694 277.19 637.013 284.357 637.013 292.4H639.013ZM643.846 271.87C647.064 265.825 651.54 261.059 657.284 257.554L656.243 255.846C650.187 259.541 645.463 264.575 642.081 270.93L643.846 271.87ZM657.284 257.554C663.012 254.059 669.578 252.3 677.013 252.3V250.3C669.249 250.3 662.315 252.141 656.243 255.846L657.284 257.554ZM790.197 313.85L791.064 314.348L791.068 314.342L790.197 313.85ZM775.947 328.25L776.451 329.114L775.947 328.25ZM735.447 328.25L734.943 329.114L735.447 328.25ZM721.047 313.85L720.176 314.342L720.181 314.35L720.185 314.358L721.047 313.85ZM721.047 271.25L720.182 270.748L720.179 270.752L721.047 271.25ZM735.447 256.7L735.951 257.564L735.961 257.557L735.447 256.7ZM775.947 256.7L775.432 257.558L775.443 257.564L775.947 256.7ZM790.197 271.25L789.326 271.742L789.329 271.748L790.197 271.25ZM777.147 278.3L776.266 278.773L776.27 278.782L777.147 278.3ZM768.147 268.7L767.602 269.539L767.616 269.547L767.629 269.555L768.147 268.7ZM743.097 268.7L743.615 269.555L743.623 269.551L743.631 269.545L743.097 268.7ZM734.097 278.3L734.973 278.782L734.978 278.773L734.097 278.3ZM734.097 306.65L734.978 306.177L734.097 306.65ZM768.147 316.25L767.629 315.394L767.619 315.401L768.147 316.25ZM777.147 306.65L776.266 306.177L777.147 306.65ZM794.447 292.55C794.447 300.399 792.731 307.326 789.326 313.358L791.068 314.342C794.662 307.974 796.447 300.701 796.447 292.55H794.447ZM789.329 313.352C785.915 319.303 781.29 323.976 775.443 327.386L776.451 329.114C782.604 325.524 787.478 320.597 791.064 314.348L789.329 313.352ZM775.443 327.386C769.608 330.79 763.034 332.5 755.697 332.5V334.5C763.359 334.5 770.285 332.71 776.451 329.114L775.443 327.386ZM755.697 332.5C748.359 332.5 741.785 330.79 735.951 327.386L734.943 329.114C741.108 332.71 748.034 334.5 755.697 334.5V332.5ZM735.951 327.386C730.101 323.974 725.423 319.298 721.908 313.342L720.185 314.358C723.87 320.602 728.792 325.526 734.943 329.114L735.951 327.386ZM721.917 313.358C718.512 307.326 716.797 300.399 716.797 292.55H714.797C714.797 300.701 716.581 307.974 720.176 314.342L721.917 313.358ZM716.797 292.55C716.797 284.598 718.513 277.675 721.914 271.748L720.179 270.752C716.58 277.025 714.797 284.302 714.797 292.55H716.797ZM721.911 271.752C725.427 265.697 730.105 260.974 735.951 257.564L734.943 255.836C728.788 259.426 723.866 264.403 720.182 270.748L721.911 271.752ZM735.961 257.557C741.795 254.057 748.364 252.3 755.697 252.3V250.3C748.029 250.3 741.099 252.143 734.932 255.843L735.961 257.557ZM755.697 252.3C763.029 252.3 769.599 254.057 775.432 257.557L776.461 255.843C770.295 252.143 763.364 250.3 755.697 250.3V252.3ZM775.443 257.564C781.286 260.972 785.911 265.692 789.326 271.742L791.068 270.758C787.483 264.408 782.608 259.428 776.451 255.836L775.443 257.564ZM789.329 271.748C792.73 277.675 794.447 284.598 794.447 292.55H796.447C796.447 284.302 794.663 277.025 791.064 270.752L789.329 271.748ZM781.447 292.55C781.447 286.916 780.319 281.993 778.023 277.818L776.27 278.782C778.374 282.607 779.447 287.184 779.447 292.55H781.447ZM778.028 277.827C775.747 273.577 772.625 270.242 768.664 267.844L767.629 269.555C771.268 271.758 774.146 274.823 776.266 278.773L778.028 277.827ZM768.691 267.861C764.822 265.351 760.481 264.1 755.697 264.1V266.1C760.112 266.1 764.072 267.249 767.602 269.539L768.691 267.861ZM755.697 264.1C750.912 264.1 746.526 265.351 742.563 267.855L743.631 269.545C747.267 267.249 751.281 266.1 755.697 266.1V264.1ZM742.579 267.844C738.618 270.242 735.496 273.577 733.216 277.827L734.978 278.773C737.097 274.823 739.975 271.758 743.615 269.555L742.579 267.844ZM733.22 277.818C730.924 281.993 729.797 286.916 729.797 292.55H731.797C731.797 287.184 732.869 282.607 734.973 278.782L733.22 277.818ZM729.797 292.55C729.797 297.992 730.927 302.858 733.216 307.123L734.978 306.177C732.866 302.242 731.797 297.708 731.797 292.55H729.797ZM733.216 307.123C735.496 311.373 738.618 314.708 742.579 317.105L743.615 315.395C739.975 313.192 737.097 310.127 734.978 306.177L733.216 307.123ZM742.579 317.105C746.541 319.503 750.921 320.7 755.697 320.7V318.7C751.272 318.7 747.253 317.597 743.615 315.395L742.579 317.105ZM755.697 320.7C760.472 320.7 764.807 319.503 768.675 317.099L767.619 315.401C764.086 317.597 760.121 318.7 755.697 318.7V320.7ZM768.664 317.105C772.625 314.708 775.747 311.373 778.028 307.123L776.266 306.177C774.146 310.127 771.268 313.192 767.629 315.395L768.664 317.105ZM778.028 307.123C780.316 302.858 781.447 297.992 781.447 292.55H779.447C779.447 297.708 778.377 302.242 776.266 306.177L778.028 307.123ZM814.525 329.9L813.794 330.582L813.805 330.595L813.818 330.607L814.525 329.9ZM814.525 255.35L815.232 256.057L815.244 256.045L815.256 256.032L814.525 255.35ZM825.175 255.35L824.444 256.032L824.467 256.058L824.492 256.081L825.175 255.35ZM827.425 277.55L826.451 277.777L828.425 277.55H827.425ZM825.925 271.1L824.963 270.825L824.892 271.074L824.951 271.327L825.925 271.1ZM829.525 263.3L828.709 262.722L828.701 262.734L828.693 262.745L829.525 263.3ZM835.525 257L836.141 257.788L835.525 257ZM843.175 252.8L842.849 251.855L842.838 251.858L843.175 252.8ZM859.675 264.65L860.326 265.409L860.341 265.396L860.355 265.383L859.675 264.65ZM850.675 265.55L850.228 266.444L850.254 266.458L850.281 266.469L850.675 265.55ZM839.275 266.15L839.722 267.044L839.275 266.15ZM833.275 271.1L834.034 271.751L834.042 271.742L834.049 271.733L833.275 271.1ZM828.925 278.6L827.99 278.245L827.984 278.26L827.979 278.274L828.925 278.6ZM825.175 329.9L824.468 329.193L825.175 329.9ZM819.925 331C817.958 331 816.423 330.384 815.232 329.193L813.818 330.607C815.427 332.216 817.492 333 819.925 333V331ZM815.256 329.218C814.042 327.917 813.425 326.317 813.425 324.35H811.425C811.425 326.783 812.208 328.883 813.794 330.582L815.256 329.218ZM813.425 324.35V260.75H811.425V324.35H813.425ZM813.425 260.75C813.425 258.783 814.041 257.248 815.232 256.057L813.818 254.643C812.208 256.252 811.425 258.317 811.425 260.75H813.425ZM815.256 256.032C816.452 254.751 817.98 254.1 819.925 254.1V252.1C817.47 252.1 815.398 252.949 813.794 254.668L815.256 256.032ZM819.925 254.1C821.755 254.1 823.238 254.74 824.444 256.032L825.906 254.668C824.312 252.96 822.295 252.1 819.925 252.1V254.1ZM824.492 256.081C825.774 257.277 826.425 258.805 826.425 260.75H828.425C828.425 258.295 827.576 256.223 825.857 254.619L824.492 256.081ZM826.425 260.75V277.55H828.425V260.75H826.425ZM828.399 277.323L826.899 270.873L824.951 271.327L826.451 277.777L828.399 277.323ZM826.886 271.375C827.658 268.673 828.815 266.168 830.357 263.855L828.693 262.745C827.035 265.232 825.791 267.927 824.963 270.825L826.886 271.375ZM830.341 263.878C831.985 261.557 833.918 259.527 836.141 257.788L834.909 256.212C832.532 258.073 830.464 260.243 828.709 262.722L830.341 263.878ZM836.141 257.788C838.355 256.055 840.81 254.706 843.511 253.742L842.838 251.858C839.939 252.894 837.294 254.345 834.909 256.212L836.141 257.788ZM843.501 253.745C846.295 252.782 849.185 252.3 852.175 252.3V250.3C848.965 250.3 845.855 250.818 842.849 251.855L843.501 253.745ZM852.175 252.3C854.584 252.3 856.621 252.945 858.332 254.205L859.518 252.595C857.429 251.055 854.965 250.3 852.175 250.3V252.3ZM858.332 254.205C860.012 255.443 860.775 256.91 860.775 258.65H862.775C862.775 256.19 861.637 254.157 859.518 252.595L858.332 254.205ZM860.775 258.65C860.775 261.19 860.118 262.874 858.994 263.917L860.355 265.383C862.032 263.826 862.775 261.51 862.775 258.65H860.775ZM859.024 263.891C857.789 264.95 856.465 265.45 855.025 265.45V267.45C856.984 267.45 858.761 266.75 860.326 265.409L859.024 263.891ZM855.025 265.45C853.662 265.45 852.346 265.178 851.069 264.631L850.281 266.469C851.803 267.122 853.387 267.45 855.025 267.45V265.45ZM851.122 264.656C849.557 263.873 847.747 263.5 845.725 263.5V265.5C847.502 265.5 848.993 265.827 850.228 266.444L851.122 264.656ZM845.725 263.5C843.445 263.5 841.143 264.098 838.828 265.256L839.722 267.044C841.807 266.002 843.805 265.5 845.725 265.5V263.5ZM838.828 265.256C836.483 266.428 834.376 268.175 832.501 270.467L834.049 271.733C835.773 269.625 837.666 268.072 839.722 267.044L838.828 265.256ZM832.516 270.449C830.632 272.647 829.126 275.25 827.99 278.245L829.86 278.955C830.924 276.15 832.318 273.753 834.034 271.751L832.516 270.449ZM827.979 278.274C826.938 281.295 826.425 284.658 826.425 288.35H828.425C828.425 284.842 828.912 281.705 829.87 278.926L827.979 278.274ZM826.425 288.35V324.35H828.425V288.35H826.425ZM826.425 324.35C826.425 326.296 825.773 327.888 824.468 329.193L825.882 330.607C827.577 328.912 828.425 326.804 828.425 324.35H826.425ZM824.468 329.193C823.268 330.393 821.777 331 819.925 331V333C822.272 333 824.282 332.207 825.882 330.607L824.468 329.193ZM941.801 329.9L942.508 330.607L942.52 330.595L942.532 330.582L941.801 329.9ZM931.001 329.9L930.27 330.582L930.293 330.608L930.319 330.631L931.001 329.9ZM928.901 313.55L928.949 312.551L927.901 312.501V313.55H928.901ZM932.051 313.7H933.051V312.746L932.099 312.701L932.051 313.7ZM929.801 319.85L928.963 319.304L928.957 319.313L929.801 319.85ZM915.101 331.55L915.458 332.484L915.47 332.48L915.482 332.475L915.101 331.55ZM885.551 328.25L885.003 329.087L885.014 329.094L885.551 328.25ZM872.501 313.7L871.612 314.159L871.615 314.165L872.501 313.7ZM872.501 271.25L873.387 271.715L873.39 271.709L872.501 271.25ZM885.401 256.7L885.945 257.539L885.949 257.537L885.401 256.7ZM915.401 253.4L915.039 254.332L915.047 254.335L915.401 253.4ZM925.001 258.8L924.369 259.575L925.001 258.8ZM931.301 265.85L930.443 266.364L930.448 266.372L930.453 266.38L931.301 265.85ZM933.551 272.75L933.647 273.745L934.551 273.658V272.75H933.551ZM928.901 273.2H927.901V274.301L928.997 274.195L928.901 273.2ZM918.251 316.1L917.696 315.268L917.685 315.275L918.251 316.1ZM926.651 306.35L927.55 306.788L926.651 306.35ZM918.251 268.7L918.806 267.868L918.251 268.7ZM893.501 268.7L892.946 267.868L892.935 267.875L893.501 268.7ZM885.101 278.45L884.211 277.994L884.206 278.003L884.202 278.012L885.101 278.45ZM885.101 306.35L884.202 306.788L884.206 306.797L884.211 306.806L885.101 306.35ZM893.501 316.1L892.935 316.925L892.946 316.932L893.501 316.1ZM936.401 222C938.368 222 939.903 222.616 941.094 223.807L942.508 222.393C940.899 220.784 938.834 220 936.401 220V222ZM941.094 223.807C942.276 224.989 942.901 226.569 942.901 228.65H944.901C944.901 226.131 944.126 224.011 942.508 222.393L941.094 223.807ZM942.901 228.65V324.35H944.901V228.65H942.901ZM942.901 324.35C942.901 326.317 942.284 327.917 941.07 329.218L942.532 330.582C944.118 328.883 944.901 326.783 944.901 324.35H942.901ZM941.094 329.193C939.903 330.384 938.368 331 936.401 331V333C938.834 333 940.899 332.216 942.508 330.607L941.094 329.193ZM936.401 331C934.548 331 932.993 330.392 931.683 329.169L930.319 330.631C932.009 332.208 934.054 333 936.401 333V331ZM931.732 329.218C930.518 327.917 929.901 326.317 929.901 324.35H927.901C927.901 326.783 928.684 328.883 930.27 330.582L931.732 329.218ZM929.901 324.35V313.55H927.901V324.35H929.901ZM928.853 314.549L932.003 314.699L932.099 312.701L928.949 312.551L928.853 314.549ZM931.051 313.7C931.051 315.229 930.409 317.087 928.963 319.304L930.639 320.396C932.193 318.013 933.051 315.771 933.051 313.7H931.051ZM928.957 319.313C927.624 321.409 925.748 323.484 923.308 325.534L924.594 327.066C927.154 324.916 929.178 322.691 930.645 320.387L928.957 319.313ZM923.308 325.534C920.896 327.56 918.037 329.26 914.72 330.625L915.482 332.475C918.965 331.04 922.006 329.24 924.594 327.066L923.308 325.534ZM914.744 330.616C911.466 331.869 907.938 332.5 904.151 332.5V334.5C908.164 334.5 911.936 333.831 915.458 332.484L914.744 330.616ZM904.151 332.5C897.43 332.5 891.418 330.798 886.088 327.406L885.014 329.094C890.684 332.702 897.072 334.5 904.151 334.5V332.5ZM886.099 327.413C880.748 323.911 876.511 319.192 873.387 313.235L871.615 314.165C874.891 320.408 879.354 325.389 885.003 329.087L886.099 327.413ZM873.39 313.241C870.273 307.203 868.701 300.264 868.701 292.4H866.701C866.701 300.536 868.329 307.797 871.612 314.159L873.39 313.241ZM868.701 292.4C868.701 284.536 870.273 277.65 873.387 271.715L871.615 270.785C868.329 277.05 866.701 284.264 866.701 292.4H868.701ZM873.39 271.709C876.517 265.65 880.703 260.937 885.945 257.539L884.857 255.861C879.299 259.463 874.885 264.45 871.612 270.791L873.39 271.709ZM885.949 257.537C891.283 254.045 897.192 252.3 903.701 252.3V250.3C896.81 250.3 890.519 252.155 884.853 255.863L885.949 257.537ZM903.701 252.3C907.788 252.3 911.564 252.981 915.039 254.332L915.763 252.468C912.038 251.019 908.014 250.3 903.701 250.3V252.3ZM915.047 254.335C918.66 255.702 921.763 257.452 924.369 259.575L925.633 258.025C922.839 255.748 919.542 253.898 915.755 252.465L915.047 254.335ZM924.369 259.575C926.997 261.716 929.013 263.981 930.443 266.364L932.158 265.336C930.589 262.719 928.405 260.284 925.633 258.025L924.369 259.575ZM930.453 266.38C931.882 268.666 932.551 270.784 932.551 272.75H934.551C934.551 270.316 933.72 267.834 932.149 265.32L930.453 266.38ZM933.455 271.755L928.805 272.205L928.997 274.195L933.647 273.745L933.455 271.755ZM929.901 273.2V228.65H927.901V273.2H929.901ZM929.901 228.65C929.901 226.683 930.517 225.148 931.708 223.957L930.294 222.543C928.685 224.152 927.901 226.217 927.901 228.65H929.901ZM931.708 223.957C933.023 222.643 934.569 222 936.401 222V220C934.033 220 931.979 220.857 930.294 222.543L931.708 223.957ZM905.801 320.7C910.775 320.7 915.129 319.453 918.817 316.925L917.685 315.275C914.373 317.547 910.427 318.7 905.801 318.7V320.7ZM918.806 316.932C922.561 314.428 925.476 311.039 927.55 306.788L925.752 305.912C923.826 309.861 921.141 312.972 917.696 315.268L918.806 316.932ZM927.55 306.788C929.625 302.534 930.651 297.731 930.651 292.4H928.651C928.651 297.469 927.677 301.966 925.752 305.912L927.55 306.788ZM930.651 292.4C930.651 287.069 929.625 282.266 927.55 278.012L925.752 278.888C927.677 282.834 928.651 287.331 928.651 292.4H930.651ZM927.55 278.012C925.476 273.761 922.561 270.372 918.806 267.868L917.696 269.532C921.141 271.828 923.826 274.939 925.752 278.888L927.55 278.012ZM918.806 267.868C915.027 265.349 910.681 264.1 905.801 264.1V266.1C910.321 266.1 914.275 267.251 917.696 269.532L918.806 267.868ZM905.801 264.1C901.017 264.1 896.721 265.351 892.946 267.868L894.056 269.532C897.481 267.249 901.385 266.1 905.801 266.1V264.1ZM892.935 267.875C889.287 270.377 886.38 273.759 884.211 277.994L885.991 278.906C888.022 274.941 890.715 271.823 894.067 269.525L892.935 267.875ZM884.202 278.012C882.127 282.266 881.101 287.069 881.101 292.4H883.101C883.101 287.331 884.075 282.834 886 278.888L884.202 278.012ZM881.101 292.4C881.101 297.731 882.127 302.534 884.202 306.788L886 305.912C884.075 301.966 883.101 297.469 883.101 292.4H881.101ZM884.211 306.806C886.38 311.041 889.287 314.423 892.935 316.925L894.067 315.275C890.715 312.977 888.022 309.859 885.991 305.894L884.211 306.806ZM892.946 316.932C896.721 319.449 901.017 320.7 905.801 320.7V318.7C901.385 318.7 897.481 317.551 894.056 315.268L892.946 316.932ZM960.265 319.7L959.424 320.241L959.446 320.275L959.471 320.307L960.265 319.7ZM959.065 314.9L960.063 314.955L960.064 314.953L959.065 314.9ZM962.215 310.1L961.674 309.259L961.67 309.262L962.215 310.1ZM966.565 309.05L966.433 310.041L966.468 310.046L966.503 310.048L966.565 309.05ZM971.065 311.3L971.807 310.63L971.79 310.611L971.772 310.593L971.065 311.3ZM980.365 318.65L979.897 319.534L979.908 319.539L980.365 318.65ZM992.965 321.35V322.35H992.99L993.015 322.349L992.965 321.35ZM999.115 320.45L999.347 321.423L999.368 321.418L999.39 321.412L999.115 320.45ZM1004.52 317.45L1005.2 318.181L1005.21 318.169L1005.22 318.157L1004.52 317.45ZM998.065 301.4L997.706 302.333L997.722 302.339L997.738 302.345L998.065 301.4ZM989.665 298.7L989.394 299.663L989.407 299.666L989.665 298.7ZM979.915 295.7L979.59 296.646L979.599 296.649L979.915 295.7ZM971.215 291.5L970.646 292.322L970.657 292.33L970.668 292.337L971.215 291.5ZM964.765 284.6L963.897 285.096L963.903 285.108L963.91 285.119L964.765 284.6ZM966.265 262.1L965.482 261.478L965.476 261.485L965.471 261.493L966.265 262.1ZM976.615 254.15L976.211 253.235L976.203 253.239L976.615 254.15ZM999.715 252.5L999.473 253.47L999.487 253.474L999.501 253.477L999.715 252.5ZM1009.02 255.95L1009.49 255.068L1009.02 255.95ZM1016.82 262.25L1017.61 261.64L1017.59 261.622L1017.58 261.604L1016.82 262.25ZM1018.47 266.9L1017.47 266.955L1017.47 266.983L1017.47 267.01L1018.47 266.9ZM1016.07 271.7L1015.45 270.911L1015.44 270.921L1015.42 270.932L1016.07 271.7ZM1011.72 273.05L1011.66 274.048L1011.72 273.05ZM1007.52 271.4L1006.73 272.021L1006.78 272.085L1006.84 272.14L1007.52 271.4ZM1000.17 265.85L999.742 266.756L999.755 266.762L999.767 266.768L1000.17 265.85ZM983.965 264.65L984.208 265.62L984.224 265.616L984.24 265.612L983.965 264.65ZM978.865 267.5L979.572 268.207V268.207L978.865 267.5ZM979.165 279.65L978.481 280.38L978.492 280.39L978.503 280.4L979.165 279.65ZM985.765 283.4L985.418 284.338L985.765 283.4ZM994.615 286.1L994.865 285.132L994.858 285.13L994.615 286.1ZM1003.77 288.95L1003.42 289.889L1003.43 289.892L1003.77 288.95ZM1012.02 293.3L1011.42 294.1L1011.43 294.114L1011.45 294.127L1012.02 293.3ZM1018.02 300.05L1017.13 300.522L1017.14 300.541L1017.15 300.56L1018.02 300.05ZM1016.07 323L1015.3 322.362L1015.29 322.364L1016.07 323ZM1005.27 330.8L1004.89 329.874L1004.88 329.878L1005.27 330.8ZM974.515 330.5L974.164 331.436L974.174 331.44L974.184 331.444L974.515 330.5ZM961.106 319.159C960.33 317.951 959.974 316.564 960.063 314.955L958.067 314.845C957.956 316.836 958.4 318.649 959.424 320.241L961.106 319.159ZM960.064 314.953C960.143 313.453 960.952 312.113 962.76 310.938L961.67 309.262C959.478 310.687 958.188 312.547 958.066 314.847L960.064 314.953ZM962.756 310.941C963.978 310.156 965.192 309.876 966.433 310.041L966.697 308.059C964.938 307.824 963.252 308.244 961.674 309.259L962.756 310.941ZM966.503 310.048C967.806 310.13 969.088 310.737 970.358 312.007L971.772 310.593C970.242 309.063 968.524 308.17 966.627 308.052L966.503 310.048ZM970.323 311.97C973.194 315.149 976.385 317.675 979.897 319.534L980.833 317.766C977.545 316.025 974.536 313.651 971.807 310.63L970.323 311.97ZM979.908 319.539C983.58 321.428 987.944 322.35 992.965 322.35V320.35C988.186 320.35 984.15 319.472 980.822 317.761L979.908 319.539ZM993.015 322.349C995.081 322.245 997.192 321.936 999.347 321.423L998.883 319.477C996.838 319.964 994.849 320.255 992.915 320.351L993.015 322.349ZM999.39 321.412C1001.63 320.771 1003.57 319.696 1005.2 318.181L1003.83 316.719C1002.46 318.004 1000.8 318.929 998.84 319.488L999.39 321.412ZM1005.22 318.157C1006.96 316.415 1007.77 313.977 1007.77 311H1005.77C1005.77 313.623 1005.07 315.485 1003.81 316.743L1005.22 318.157ZM1007.77 311C1007.77 308.266 1006.88 305.987 1005.05 304.27L1003.68 305.73C1005.05 307.013 1005.77 308.734 1005.77 311H1007.77ZM1005.05 304.27C1003.32 302.653 1001.09 301.39 998.392 300.455L997.738 302.345C1000.24 303.21 1002.21 304.347 1003.68 305.73L1005.05 304.27ZM998.424 300.467C995.787 299.453 992.953 298.542 989.923 297.734L989.407 299.666C992.377 300.458 995.143 301.347 997.706 302.333L998.424 300.467ZM989.936 297.737C986.752 296.842 983.517 295.847 980.231 294.751L979.599 296.649C982.913 297.753 986.178 298.758 989.394 299.663L989.936 297.737ZM980.24 294.754C977.111 293.679 974.287 292.314 971.762 290.663L970.668 292.337C973.343 294.086 976.319 295.521 979.59 296.646L980.24 294.754ZM971.784 290.678C969.304 288.961 967.25 286.765 965.62 284.081L963.91 285.119C965.68 288.035 967.926 290.439 970.646 292.322L971.784 290.678ZM965.633 284.104C964.14 281.491 963.365 278.222 963.365 274.25H961.365C961.365 278.478 962.19 282.109 963.897 285.096L965.633 284.104ZM963.365 274.25C963.365 269.747 964.606 265.916 967.059 262.707L965.471 261.493C962.724 265.084 961.365 269.353 961.365 274.25H963.365ZM967.048 262.722C969.643 259.454 972.963 256.9 977.027 255.061L976.203 253.239C971.867 255.2 968.287 257.946 965.482 261.478L967.048 262.722ZM977.019 255.065C981.184 253.224 985.695 252.3 990.565 252.3V250.3C985.435 250.3 980.646 251.276 976.211 253.235L977.019 255.065ZM990.565 252.3C993.373 252.3 996.341 252.687 999.473 253.47L999.958 251.53C996.689 250.713 993.557 250.3 990.565 250.3V252.3ZM999.501 253.477C1002.61 254.157 1005.62 255.274 1008.54 256.832L1009.49 255.068C1006.41 253.426 1003.22 252.243 999.929 251.523L999.501 253.477ZM1008.54 256.832C1011.43 258.373 1013.93 260.392 1016.05 262.896L1017.58 261.604C1015.3 258.908 1012.6 256.727 1009.49 255.068L1008.54 256.832ZM1016.02 262.86C1016.89 263.984 1017.38 265.336 1017.47 266.955L1019.46 266.845C1019.35 264.864 1018.74 263.116 1017.61 261.64L1016.02 262.86ZM1017.47 267.01C1017.62 268.373 1017.06 269.661 1015.45 270.911L1016.68 272.489C1018.67 270.939 1019.71 269.027 1019.46 266.79L1017.47 267.01ZM1015.42 270.932C1014.44 271.754 1013.24 272.138 1011.77 272.052L1011.66 274.048C1013.59 274.162 1015.29 273.646 1016.71 272.468L1015.42 270.932ZM1011.77 272.052C1010.27 271.963 1009.09 271.484 1008.19 270.66L1006.84 272.14C1008.14 273.316 1009.76 273.937 1011.66 274.048L1011.77 272.052ZM1008.3 270.779C1006.29 268.241 1003.7 266.293 1000.56 264.932L999.767 266.768C1002.63 268.007 1004.94 269.759 1006.73 272.021L1008.3 270.779ZM1000.59 264.944C997.437 263.474 993.89 262.75 989.965 262.75V264.75C993.641 264.75 996.893 265.426 999.742 266.756L1000.59 264.944ZM989.965 262.75C987.959 262.75 985.867 263.067 983.69 263.688L984.24 265.612C986.263 265.033 988.171 264.75 989.965 264.75V262.75ZM983.723 263.68C981.554 264.222 979.692 265.259 978.158 266.793L979.572 268.207C980.839 266.941 982.376 266.078 984.208 265.62L983.723 263.68ZM978.158 266.793C976.51 268.44 975.765 270.784 975.765 273.65H977.765C977.765 271.116 978.42 269.36 979.572 268.207L978.158 266.793ZM975.765 273.65C975.765 276.384 976.65 278.663 978.481 280.38L979.849 278.92C978.48 277.637 977.765 275.916 977.765 273.65H975.765ZM978.503 280.4C980.317 282 982.632 283.306 985.418 284.338L986.112 282.462C983.498 281.494 981.413 280.3 979.827 278.9L978.503 280.4ZM985.418 284.338C988.157 285.352 991.142 286.263 994.372 287.07L994.858 285.13C991.688 284.337 988.774 283.448 986.112 282.462L985.418 284.338ZM994.365 287.068C997.433 287.86 1000.45 288.8 1003.42 289.889L1004.11 288.011C1001.08 286.9 997.997 285.94 994.865 285.132L994.365 287.068ZM1003.43 289.892C1006.44 290.962 1009.1 292.366 1011.42 294.1L1012.62 292.5C1010.13 290.634 1007.29 289.138 1004.1 288.008L1003.43 289.892ZM1011.45 294.127C1013.81 295.732 1015.71 297.857 1017.13 300.522L1018.9 299.578C1017.32 296.643 1015.22 294.268 1012.58 292.473L1011.45 294.127ZM1017.15 300.56C1018.64 303.062 1019.42 306.321 1019.42 310.4H1021.42C1021.42 306.079 1020.59 302.438 1018.88 299.54L1017.15 300.56ZM1019.42 310.4C1019.42 315.087 1018.03 319.056 1015.3 322.362L1016.84 323.638C1019.9 319.944 1021.42 315.513 1021.42 310.4H1019.42ZM1015.29 322.364C1012.61 325.627 1009.15 328.132 1004.89 329.874L1005.64 331.726C1010.18 329.868 1013.92 327.173 1016.84 323.636L1015.29 322.364ZM1004.88 329.878C1000.7 331.625 996.286 332.5 991.615 332.5V334.5C996.544 334.5 1001.23 333.575 1005.65 331.722L1004.88 329.878ZM991.615 332.5C986.034 332.5 980.446 331.521 974.846 329.556L974.184 331.444C979.984 333.479 985.796 334.5 991.615 334.5V332.5ZM974.866 329.564C969.455 327.534 964.854 324.055 961.059 319.093L959.471 320.307C963.476 325.545 968.375 329.266 974.164 331.436L974.866 329.564Z" fill="black" mask="url(#path-4-outside-1_2_6)"/>
<defs>
<linearGradient id="paint0_linear_2_6" x1="455.856" y1="69.3694" x2="104.054" y2="486.824" gradientUnits="userSpaceOnUse">
<stop/>
<stop offset="0.2"/>
<stop offset="0.4" stop-color="#3E3737"/>
<stop offset="0.5" stop-color="#574F4F"/>
<stop offset="0.6" stop-color="#3E3737"/>
<stop offset="0.8" stop-opacity="0.985"/>
<stop offset="1"/>
</linearGradient>
</defs>
</svg>
